<?xml version="1.0" encoding="UTF-8" standalone="no"?>
<!-- Created with Inkscape (http://www.inkscape.org/) -->

<svg
   xmlns:dc="http://purl.org/dc/elements/1.1/"
   xmlns:cc="http://creativecommons.org/ns#"
   xmlns:rdf="http://www.w3.org/1999/02/22-rdf-syntax-ns#"
   xmlns:svg="http://www.w3.org/2000/svg"
   xmlns="http://www.w3.org/2000/svg"
   xmlns:sodipodi="http://sodipodi.sourceforge.net/DTD/sodipodi-0.dtd"
   xmlns:inkscape="http://www.inkscape.org/namespaces/inkscape"
   version="1.1"
   id="svg50200"
   width="681"
   height="126">
  <metadata
     id="metadata50206">
    <rdf:RDF>
      <cc:Work
         rdf:about="">
        <dc:format>image/svg+xml</dc:format>
        <dc:type
           rdf:resource="http://purl.org/dc/dcmitype/StillImage" />
      </cc:Work>
    </rdf:RDF>
  </metadata>
  <defs
     id="defs50204" />
  <sodipodi:namedview
     pagecolor="#ffffff"
     bordercolor="#666666"
     borderopacity="1"
     objecttolerance="10"
     gridtolerance="10"
     guidetolerance="10"
     inkscape:pageopacity="0"
     inkscape:pageshadow="2"
     inkscape:window-width="640"
     inkscape:window-height="480"
     id="namedview50202" />
  <inkscape:clipboard
     style="font-variant-east_asian:normal;opacity:1;vector-effect:none;fill:#000000;fill-opacity:1;stroke-width:0.99999995;stroke-linecap:butt;stroke-linejoin:miter;stroke-miterlimit:4;stroke-dasharray:none;stroke-dashoffset:0;stroke-opacity:1"
     min="59.500029,868.42859"
     max="740.50001,994.42859" />
  <path
     inkscape:connector-curvature="0"
     id="path49519"
     d="m 318.03106,107.85086 c -9.60794,-9.817964 -18.18623,-17.850859 -19.06292,-17.850859 -0.87667,0 -2.86885,1.330696 -4.42702,2.957065 -3.55615,3.711836 -4.62587,3.236522 -13.59561,-6.040706 l -6.55448,-6.77915 -4.33973,3.434155 c -5.02435,3.975912 -3.62439,4.628145 -15.71436,-7.321361 l -8.34698,-8.249991 h -62.4616 -62.46161 l -5.06676,-4.500019 C 110.6523,58.750489 109,58.042357 109,60.499994 c 0,0.824996 -0.675,1.500019 -1.5,1.500019 -0.825,0 -1.5,0.405468 -1.5,0.901002 0,0.495572 1.57107,0.856516 3.49126,0.802053 3.60647,-0.102047 6.03987,1.683818 8.46309,6.211654 1.07931,2.016718 0.88738,2.643477 -1.61473,5.273084 -4.49455,4.723578 -6.01448,5.21314 -8.96924,2.888919 l -2.57301,-2.023937 -3.40105,2.594079 c -3.958727,3.019465 -3.064146,3.490809 -14.039603,-7.396876 -4.019657,-3.987477 -7.810844,-7.250003 -8.424862,-7.250003 -0.614022,0 -2.260566,0.900019 -3.658987,2.000013 -2.401104,1.888705 -4.056783,2.000012 -29.754105,2.000012 C 16.53882,68.000013 0,67.225853 0,65.869305 0,64.319623 4.4500423,64.010987 37.695251,63.25493 l 33.195251,-0.754923 3.352354,-3.250016 c 1.843797,-1.78749 4.026712,-3.249978 4.850921,-3.249978 0.824213,0 4.336876,3.170155 7.805912,7.044775 6.942727,7.754457 10.43879,10.482104 12.110668,9.448819 0.762909,-0.471496 0.623645,-1.403225 -0.456023,-3.051024 -0.854887,-1.30473 -1.554338,-2.963527 -1.554338,-3.686286 0,-1.779024 12.185484,-13.756309 13.995454,-13.756309 0.79292,0 3.83358,2.362507 6.75702,5.250028 l 5.31537,5.249991 63.44316,0.499994 63.44317,0.499993 8.07885,8.000013 c 7.69035,7.615295 8.14829,7.906658 9.52291,6.058885 0.79423,-1.067641 1.44406,-2.208491 1.44406,-2.535231 0,-0.326552 -3.36238,-3.836826 -7.47195,-7.800152 -5.45818,-5.263974 -7.30867,-7.680075 -6.86609,-8.964812 0.81948,-2.378759 25.49183,-27.258709 27.03128,-27.258709 0.67215,0 3.72749,2.566148 6.78965,5.702513 l 5.56756,5.702514 -7.52522,7.5696 c -4.13888,4.163301 -7.52523,8.106331 -7.52523,8.762343 0,0.655975 0.95911,1.705965 2.13137,2.333367 1.94199,1.039295 3.3636,-0.0892 16,-12.701443 C 304.75909,40.755742 311,33.817474 311,32.950489 c 0,-0.866948 -1.368,-2.886917 -3.04003,-4.488832 -1.67199,-1.601877 -2.90952,-3.692145 -2.74998,-4.645077 0.15949,-0.952933 5.19376,-6.701481 11.18726,-12.774577 C 327.22743,0.06795591 327.3237,0 332.04025,0 c 3.29597,0 4.92158,0.45822993 5.32134,1.5000189 0.7471,1.9469103 5.52968,1.9469103 6.27678,0 C 344.03813,0.45822993 345.66374,0 348.95972,0 c 4.71654,0 4.81281,0.0680315 15.64301,11.042003 5.9935,6.073096 11.02775,11.821644 11.18725,12.774577 0.15949,0.952932 -1.078,3.0432 -2.74999,4.645077 -1.67202,1.601915 -3.04002,3.621884 -3.04002,4.488832 0,0.866985 6.24091,7.805253 13.86864,15.418393 12.63639,12.612208 14.05802,13.740738 15.99998,12.701443 1.17226,-0.627402 2.13139,-1.699427 2.13139,-2.382312 0,-0.682923 -3.15001,-4.367508 -6.99999,-8.188006 -3.85001,-3.820498 -7.00002,-7.459843 -7.00002,-8.087433 0,-1.537059 9.79525,-11.412586 11.3198,-11.412586 1.5304,0 26.20297,24.892157 27.01825,27.258709 0.44259,1.284737 -1.40791,3.700838 -6.86608,8.964812 -4.10959,3.963326 -7.47197,7.473411 -7.47197,7.800152 0,0.326929 0.64985,1.46759 1.44408,2.535231 1.37462,1.847773 1.83254,1.55641 9.5229,-6.058885 l 8.07885,-8.000013 63.44315,-0.499993 63.44315,-0.499994 5.31538,-5.249991 c 2.92346,-2.887521 5.98923,-5.250028 6.81282,-5.250028 1.80303,0 13.93966,12.025587 13.93966,13.812095 0,0.692069 -0.69944,2.32577 -1.55433,3.6305 -1.07966,1.647799 -1.21894,2.579528 -0.456,3.051024 1.67183,1.033285 5.16793,-1.694362 12.11066,-9.448819 3.46904,-3.87462 6.9817,-7.044775 7.8059,-7.044775 0.8242,0 3.00714,1.462488 4.85091,3.249978 l 3.35236,3.250016 33.19526,0.754923 c 33.24521,0.756057 37.69526,1.064693 37.69526,2.614375 0,1.356548 -16.53883,2.130708 -45.51877,2.130708 -25.69731,0 -27.35301,-0.111118 -29.75411,-2.000012 -1.39842,-1.099994 -3.04497,-2.000013 -3.659,-2.000013 -0.61402,0 -4.40519,3.262526 -8.42487,7.250003 -10.97544,10.887685 -10.08087,10.416341 -14.03958,7.396876 l -3.40105,-2.594079 -2.57302,2.023937 c -2.95476,2.324221 -4.4747,1.834659 -8.96924,-2.888919 -2.4466,-2.571289 -2.67832,-3.285695 -1.67429,-5.161777 2.2549,-4.213342 5.28854,-6.414614 8.70663,-6.317745 1.81901,0.05178 3.30728,-0.311811 3.30728,-0.807269 0,-0.495534 -0.67499,-0.901002 -1.49998,-0.901002 -0.825,0 -1.50002,-0.675023 -1.50002,-1.500019 0,-2.457637 -1.6523,-1.749505 -6.99999,3 l -5.06676,4.500019 h -62.49997 -62.49997 l -8.25774,8.249991 c -11.89557,11.884422 -10.6837,11.312164 -15.64384,7.387049 l -4.25669,-3.368429 -7.13753,7.195767 c -3.9256,3.957657 -7.87332,7.463282 -8.77269,7.790249 -1.03612,0.376819 -2.66162,-0.4769 -4.43709,-2.330078 -1.54103,-1.608492 -3.52158,-2.924561 -4.40119,-2.924561 -0.87965,0 -9.65408,8.100019 -19.49881,17.999999 l -17.8995,18 -4.56412,-0.14929 c -4.54099,-0.14816 -4.65256,-0.23962 -22.03301,-18 z m 40.84565,-4.90163 c 9.41778,-9.377953 17.12326,-17.676398 17.12326,-18.440996 0,-2.510324 -1.69168,-2.505865 -4.61957,0.01134 -1.58422,1.362444 -3.29174,2.477744 -3.79449,2.478425 -0.50272,6.8e-4 -6.59902,-5.623786 -13.54726,-12.498785 -6.94825,-6.874998 -13.0687,-12.499993 -13.60094,-12.499993 -0.53227,0 -6.57925,5.624995 -13.43773,12.499993 -6.85848,6.874999 -12.97787,12.499994 -13.59861,12.499994 -0.62075,0 -2.2935,-1.16485 -3.71722,-2.58856 C 307.13532,81.861847 305,81.866533 305,84.421985 c 0,1.690999 33.78549,35.578245 35.47139,35.578245 0.70511,0 8.98749,-7.67286 18.40532,-17.05077 z m -29.0168,-0.6364 c -5.42294,-5.32796 -9.85992,-10.071758 -9.85992,-10.541818 0,-1.372573 19.85775,-20.770999 21.26283,-20.770999 1.9539,0 19.73715,18.295182 19.73715,20.305361 0,2.138495 -17.78192,20.694656 -19.83122,20.694656 -0.79691,0 -5.8859,-4.35924 -11.30884,-9.6872 z m 24.14007,-10.608186 c 0,-1.641525 -11.32033,-12.704656 -12.99999,-12.704656 -1.71734,0 -13.00002,11.080668 -13.00002,12.767282 0,0.50366 2.95684,3.754999 6.57074,7.225248 l 6.57071,6.309542 6.42928,-6.372131 c 3.53609,-3.504681 6.42928,-6.756057 6.42928,-7.225285 z M 293.4308,85.319736 c 0.8746,-2.279168 -9.14151,-12.509329 -11.85248,-12.105789 -3.45869,0.514847 -2.81307,2.657575 2.49036,8.265185 5.33726,5.643363 8.217,6.824693 9.36212,3.840604 z m 103.5005,-3.840604 c 5.25093,-5.552126 5.92085,-7.684876 2.61505,-8.325695 -2.60678,-0.505323 -12.46023,9.460006 -11.81049,11.94463 0.85292,3.261581 3.7762,2.111093 9.19544,-3.618935 z m -95.47034,-3.416013 c 0.31861,-0.515263 -1.22997,-2.838501 -3.44096,-5.162759 -2.21102,-2.324221 -4.02001,-4.949027 -4.02001,-5.83287 0,-0.883842 4.24841,-5.837744 9.44095,-11.008667 10.65934,-10.61503 9.16056,-10.456706 17.80906,-1.881222 2.61248,2.59045 4.74999,5.265411 4.74999,5.944365 0,0.678917 -3.44488,4.774375 -7.65527,9.100951 -5.33688,5.48417 -7.33791,8.183887 -6.60737,8.91447 0.71116,0.711118 1.64482,0.724535 2.90529,0.04157 2.84708,-1.542425 20.35735,-19.742362 20.35735,-21.159193 0,-1.437128 -14.55673,-16.693116 -17.38135,-18.216303 -1.61492,-0.870879 -3.84552,0.945827 -15.75002,12.827528 -7.62774,7.613178 -13.86863,14.616416 -13.86863,15.562809 0,0.946394 2.1375,3.943748 4.75,6.660813 4.58138,4.764699 7.49672,6.17314 8.71097,4.208391 z m 68.0595,-0.09638 c 0.35112,-0.568214 -2.77225,-4.538041 -6.94099,-8.821795 -4.1687,-4.283755 -7.5795,-8.267679 -7.5795,-8.853204 0,-0.585486 2.13751,-3.272012 4.75,-5.970028 8.49108,-8.768995 7.12546,-8.902186 17.80905,1.736995 5.19255,5.170923 9.44096,10.161336 9.44096,11.089815 0,0.928516 -1.80234,3.564056 -4.00524,5.856793 -3.8804,4.038766 -4.36441,5.994558 -1.48335,5.994558 1.99268,0 11.48859,-9.762407 11.48859,-11.810986 0,-0.94371 -6.24091,-7.944718 -13.86863,-15.557896 -11.9045,-11.881701 -14.1351,-13.698407 -15.75001,-12.827528 -2.89391,1.560567 -17.38137,16.79641 -17.38137,18.279269 0,1.60543 20.15059,21.917141 21.74332,21.917141 0.62627,0 1.42598,-0.464882 1.77717,-1.033134 z m -56.66554,-11.40699 c 2.82981,-2.992063 5.14507,-5.769147 5.14507,-6.171251 0,-1.328995 -3.28456,-4.388598 -4.71125,-4.388598 -1.93565,0 -11.28874,9.370394 -11.28874,11.309669 0,1.428699 3.53083,4.690318 5.07745,4.690318 0.34772,0 2.9477,-2.448075 5.77747,-5.440138 z m 63.92254,3.883427 c 1.22241,-0.856177 2.22251,-2.266319 2.22251,-3.133607 0,-1.839949 -9.30671,-11.309669 -11.11499,-11.309669 -1.47462,0 -4.885,2.942513 -4.885,4.214853 0,1.035704 9.96261,11.785134 10.92253,11.785134 0.34772,0 1.63257,-0.700497 2.85495,-1.556711 z M 276.30257,67.048971 c -0.27001,-1.032605 -1.57357,-2.894476 -2.89677,-4.137562 -3.80727,-3.576756 -3.04435,-5.831509 4.50944,-13.327408 6.67595,-6.624794 7.76076,-9.114709 4.26449,-9.787994 -1.68905,-0.325418 -18.27524,15.404409 -19.43783,18.434079 -0.41722,1.087256 1.27706,3.391143 5.35277,7.27869 4.70384,4.486715 6.25208,5.448226 7.33103,4.552781 0.7523,-0.624378 1.14689,-1.980019 0.87687,-3.012586 z m 136.70589,-1.638614 c 3.96344,-3.780435 5.66449,-6.099062 5.25589,-7.163868 -1.18016,-3.075477 -17.73415,-18.811314 -19.42923,-18.468964 -3.50532,0.707905 -2.43863,3.169512 4.24962,9.806476 7.41404,7.357228 8.32778,9.835464 4.79721,13.01091 -2.76178,2.483981 -3.90837,5.586406 -2.64435,7.154986 0.554,0.687496 1.21058,1.250003 1.45905,1.250003 0.24869,0 3.08882,-2.515276 6.31181,-5.589543 z m -62.10849,-22.810054 9.36053,-9.399572 -8.77285,-9.100422 c -5.86828,-6.087458 -9.50611,-9.100422 -10.98765,-9.100422 -1.48157,0 -5.11941,3.012964 -10.98769,9.100422 l -8.77285,9.100422 9.36053,9.399572 c 5.14824,5.169789 9.82824,9.399572 10.40001,9.399572 0.57173,0 5.25173,-4.229783 10.39997,-9.399572 z m -15.94284,-3.237241 c -2.72643,-2.550274 -4.95715,-5.242394 -4.95715,-5.982463 0,-1.658003 7.84082,-9.823559 10.27238,-10.69784 2.0231,-0.727408 8.43046,4.524851 10.70528,8.775421 1.33157,2.488063 1.18213,2.810797 -3.50581,7.57028 -2.69318,2.7343 -5.49536,4.97144 -6.22711,4.97144 -0.73172,0 -3.56115,-2.086602 -6.28759,-4.636838 z m 8.54839,-4.37212 c 0.3428,-0.55491 0.33071,-1.93115 -0.0265,-3.05828 -0.82027,-2.584441 -4.80249,-2.249348 -5.31685,0.447382 -0.54062,2.834571 3.87281,4.990904 5.34372,2.610898 z M 326.16939,19.279181 c 9.23414,-9.036132 10.82086,-12.4250077 6.1299,-13.0923967 -1.63438,-0.2324409 -4.40065,1.8721134 -10.74999,8.1787087 -4.7021,4.670438 -8.54932,9.108851 -8.54932,9.863055 0,1.56567 1.94687,3.771326 3.32878,3.771326 0.51084,0 4.93908,-3.924321 9.84063,-8.720693 z m 40.6306,7.520693 c 2.22596,-2.225952 1.22748,-3.915326 -7.34933,-12.434381 -6.34934,-6.3065953 -9.11561,-8.4112252 -10.74999,-8.1787087 -4.69096,0.667389 -3.10424,4.0562647 6.1299,13.0923967 4.90156,4.796372 9.3298,8.720693 9.84064,8.720693 0.51081,0 1.46876,-0.539981 2.12878,-1.2 z"
     style="fill:#000000;fill-opacity:1;stroke-width:0.99999994" />
</svg>
