<?xml version="1.0" encoding="UTF-8" standalone="no"?>
<!-- Created with Inkscape (http://www.inkscape.org/) -->

<svg
   xmlns:dc="http://purl.org/dc/elements/1.1/"
   xmlns:cc="http://creativecommons.org/ns#"
   xmlns:rdf="http://www.w3.org/1999/02/22-rdf-syntax-ns#"
   xmlns:svg="http://www.w3.org/2000/svg"
   xmlns="http://www.w3.org/2000/svg"
   xmlns:sodipodi="http://sodipodi.sourceforge.net/DTD/sodipodi-0.dtd"
   xmlns:inkscape="http://www.inkscape.org/namespaces/inkscape"
   version="1.1"
   id="svg831"
   width="652.18359"
   height="72.120369">
  <metadata
     id="metadata837">
    <rdf:RDF>
      <cc:Work
         rdf:about="">
        <dc:format>image/svg+xml</dc:format>
        <dc:type
           rdf:resource="http://purl.org/dc/dcmitype/StillImage" />
      </cc:Work>
    </rdf:RDF>
  </metadata>
  <defs
     id="defs835" />
  <sodipodi:namedview
     pagecolor="#ffffff"
     bordercolor="#666666"
     borderopacity="1"
     objecttolerance="10"
     gridtolerance="10"
     guidetolerance="10"
     inkscape:pageopacity="0"
     inkscape:pageshadow="2"
     inkscape:window-width="640"
     inkscape:window-height="480"
     id="namedview833" />
  <inkscape:clipboard
     style="font-variant-east_asian:normal;opacity:0.97000002;vector-effect:none;fill:#000000;fill-opacity:1;stroke-width:0.99999995;stroke-linecap:butt;stroke-linejoin:miter;stroke-miterlimit:4;stroke-dasharray:none;stroke-dashoffset:0;stroke-opacity:1"
     min="56.457685,776.09323"
     max="708.64129,848.2136" />
  <path
     inkscape:connector-curvature="0"
     id="path21"
     d="M 288.13586,60.545357 277.22832,49.009219 273.09801,53.0628 c -4.90502,4.813946 -8.05774,5.184 -12.47787,1.464718 -2.24543,-1.889386 -3.07495,-3.442999 -3.07014,-5.750022 0.007,-3.209273 2.3652,-7.684233 5.23183,-9.926703 1.98873,-1.555729 0.63137,-5.734375 -1.86269,-5.734375 -0.9288,0 -5.17391,3.712479 -9.43357,8.249991 l -7.74484,8.249991 -27.84866,0.217701 C 173.21585,50.167833 134.96798,50.119833 114.54342,49.707486 55.15407,48.508204 14.367786,47.511921 8.0434191,47.106038 L 4.0434203,46.849408 9.0434216,46.12302 C 14.210206,45.372368 83.221568,44.803549 183.81167,44.682491 l 57.76827,-0.06954 2.38228,-2.498155 c 1.31025,-1.373971 4.752,-5.095899 7.64831,-8.270929 6.24747,-6.848617 8.34203,-7.5984 13.20736,-4.727811 4.37559,2.581682 5.17356,2.240542 12.69136,-5.425663 6.18367,-6.305764 8.18471,-6.768567 13.54311,-3.132246 l 3.59777,2.4415 5.19662,-5.497475 C 316.34564,0.04808424 316.266,0.11664488 320.04818,0.11664488 c 2.62025,0 4.19121,0.6975874 5.81059,2.58024572 l 2.21941,2.5802457 2.78415,-2.5802457 c 4.97155,-4.6075087 7.67928,-3.68186463 16.58521,5.6697449 4.32125,4.5375115 9.06977,9.7055245 10.55222,11.4845105 l 2.69537,3.234482 3.65627,-2.484473 c 6.25867,-4.252913 8.86462,-3.364233 16.82608,5.737928 4.81867,5.509039 6.34772,6.00257 9.8688,3.185424 1.64841,-1.318867 3.75549,-2.400189 4.68238,-2.402911 0.92689,-0.0027 5.77032,4.022174 10.76323,8.944252 l 9.07793,8.949204 62.2368,0.0022 c 72.08357,0.0025 173.78994,0.81925 174.37093,1.400239 0.58004,0.580044 -40.59821,1.805178 -58.13416,1.729663 -8.24999,-0.03402 -21.74998,0.258142 -30,0.652687 -8.24999,0.394545 -45.60787,0.739729 -83.01748,0.767093 l -68.01747,0.04989 -8.04193,-8.24999 c -4.42307,-4.537512 -8.81722,-8.249991 -9.76475,-8.249991 -0.94753,0 -2.09847,1.012498 -2.55761,2.249991 -0.67449,1.817953 -0.18822,2.916434 2.53225,5.720844 4.42874,4.565329 4.57803,8.971994 0.44394,13.106079 -4.17581,4.175773 -7.53396,3.87239 -12.64358,-1.142325 l -4.14232,-4.065411 -9.89552,10.119534 c -5.44252,5.56577 -10.041,10.77018 -10.21882,11.56543 -0.21355,0.955238 -1.6317,1.445859 -4.17922,1.445859 -4.11326,0 -3.31491,0.684585 -19.82396,-17.000013 -7.53883,-8.075641 -7.29332,-10.051389 2.49989,-20.114835 8.08078,-8.303773 10.69951,-9.430413 14.76771,-6.353348 2.72886,2.064 4.36664,1.82657 4.73934,-0.687005 0.23509,-1.586192 -2.21401,-4.781783 -9.27605,-12.103068 -9.75772,-10.1158675 -11.92143,-11.2562266 -14.2729,-7.5221667 -0.87727,1.3930583 -0.46152,2.3605797 2.18967,5.0958997 2.52839,2.608667 3.31022,4.3217 3.43827,7.533732 0.15081,3.784101 -0.32352,4.652674 -5.284,9.675628 l -5.44978,5.518375 -5.49316,-5.625978 c -4.86851,-4.986217 -5.48136,-6.076157 -5.38933,-9.584806 0.0748,-2.850142 0.86279,-4.751093 2.81401,-6.787729 3.01472,-3.146722 3.18102,-7.307339 0.31408,-7.8537453 -1.93202,-0.368126 -20.32218,17.9845423 -21.13474,21.0917293 -0.67381,2.576693 1.6334,3.146306 5.22376,1.289688 1.67233,-0.864831 3.8849,-1.572359 4.91686,-1.572359 1.03193,0 5.32929,3.548296 9.54966,7.885153 10.05938,10.337008 10.16075,11.834948 1.42341,21.037418 -3.43752,3.620485 -8.17179,8.71903 -10.52062,11.330078 -3.43396,3.817323 -4.90322,4.743912 -7.49998,4.729852 -2.81359,-0.01512 -4.63385,-1.502815 -14.13697,-11.553562 z m 76.69191,-4.02342 c 11.32438,-11.683276 11.33379,-11.74749 2.87762,-19.657248 -5.42672,-5.076056 -6.32179,-5.465574 -7.97684,-3.471345 -0.77877,0.938344 -0.28082,2.436586 1.87756,5.65047 4.18741,6.234935 3.68897,10.031924 -1.94106,14.786646 -4.33734,3.662967 -9.4343,2.393499 -13.17532,-3.2815 -2.71922,-4.124976 -2.41942,-7.562192 1.03907,-11.914167 1.64198,-2.066154 2.74042,-4.15302 2.44097,-4.637518 -1.35832,-2.197795 -4.66583,-0.379767 -10.33557,5.681235 l -6.13852,6.562091 1.92442,2.687925 c 1.05842,1.478324 4.47961,5.120277 7.60256,8.093178 3.12299,2.972938 6.3843,6.482986 7.24732,7.800189 0.86305,1.317165 2.29013,2.259779 3.17133,2.09469 0.88115,-0.165166 6.00506,-4.842709 11.38646,-10.394646 z m -54.17988,2.844472 c 7.22532,-7.511773 10.89552,-12.045543 10.89552,-13.459086 0,-1.756234 -11.29547,-12.790905 -13.09317,-12.790905 -3.02592,0 -2.99599,1.576819 0.1115,5.866394 4.05373,5.596044 3.85678,8.493884 -0.90055,13.251251 -5.73951,5.739515 -10.43686,4.956057 -15.0514,-2.5104 -2.37226,-3.838451 -1.97749,-5.792164 2.32917,-11.526804 2.75365,-3.66667 2.14265,-6.295445 -1.25665,-5.4065 -2.23907,0.585524 -12.13879,10.74497 -12.13879,12.457247 0,2.323087 18.68995,20.868813 21.03115,20.868813 0.8694,0 4.5024,-3.037531 8.07333,-6.75001 z M 269.88787,48.834567 c 3.23259,-2.777689 3.33136,-4.131402 0.44876,-6.150426 -2.06015,-1.442985 -2.39238,-1.367886 -5,1.130382 -5.825,5.580699 -1.567,10.277291 4.55124,5.020044 z m 34.50951,-0.06274 c 2.46663,-2.625601 2.06324,-5.084826 -1.27861,-7.795503 -1.89359,-1.535887 -2.16545,-1.504139 -4.28138,0.499994 -2.7312,2.58686 -2.83944,4.013707 -0.54398,7.17052 2.20656,3.034507 3.34862,3.057902 6.10397,0.125102 z m 53.31729,0.689537 c 2.46708,-2.232643 2.2761,-5.388473 -0.48428,-8.003377 -2.1476,-2.034406 -2.4006,-2.063131 -4.40454,-0.499994 -2.84746,2.22104 -3.20247,5.478048 -0.87746,8.050583 2.29644,2.540939 3.36612,2.62492 5.76628,0.452788 z m 35.61876,-0.869594 c 0.17272,-1.205518 -0.8987,-3.163389 -2.64828,-4.83961 -2.48807,-2.38371 -3.26034,-2.642683 -5.04,-1.690242 -2.71435,1.452661 -2.66506,3.671168 0.14816,6.674608 2.76926,2.956384 7.1077,2.873121 7.54,-0.144756 z M 284.68333,33.616412 c 2.64931,-2.750022 4.82664,-5.492749 4.83851,-6.095017 0.0117,-0.602268 -0.85033,-1.884057 -1.91599,-2.848479 -1.86863,-1.691112 -2.11082,-1.591408 -6.80828,2.80252 -2.6789,2.505789 -5.4807,5.695748 -6.22622,7.088768 -1.19001,2.223534 -1.13384,2.777689 0.46007,4.538948 2.0993,2.319685 2.16997,2.279547 9.65191,-5.48674 z m 97.87168,2.521701 c -0.52215,-0.975647 -3.38465,-4.349216 -6.36118,-7.496806 -4.82199,-5.099188 -5.64283,-5.599333 -7.53112,-4.588763 -3.36767,1.802344 -2.52083,4.130117 3.93226,10.808882 5.92252,6.129676 6.07903,6.215509 8.4717,4.647799 1.89811,-1.243692 2.22754,-1.989921 1.48834,-3.371112 z M 333.09928,23.008336 c 1.54262,-2.983067 1.50898,-3.113423 -1.55958,-6.045883 -2.88114,-2.753386 -3.31344,-2.88 -5.31625,-1.556939 -1.19901,0.792114 -2.60368,2.624051 -3.12147,4.071005 -0.79688,2.226747 -0.5057,3.085644 1.89596,5.592416 3.31903,3.464353 5.53588,2.900485 8.10134,-2.060599 z M 0.29342218,46.454107 c 0.68749985,-0.277418 1.81249892,-0.277418 2.49999882,0 0.6874998,0.277417 0.1249889,0.504416 -1.2499994,0.504416 -1.37499973,0 -1.93750305,-0.22715 -1.24999942,-0.504416 z"
     style="opacity:0.97000002;fill:#000000;fill-opacity:1;stroke-width:0.99999994" />
</svg>
