<?xml version="1.0" encoding="UTF-8" standalone="no"?>
<!-- Created with Inkscape (http://www.inkscape.org/) -->

<svg
   xmlns:dc="http://purl.org/dc/elements/1.1/"
   xmlns:cc="http://creativecommons.org/ns#"
   xmlns:rdf="http://www.w3.org/1999/02/22-rdf-syntax-ns#"
   xmlns:svg="http://www.w3.org/2000/svg"
   xmlns="http://www.w3.org/2000/svg"
   xmlns:sodipodi="http://sodipodi.sourceforge.net/DTD/sodipodi-0.dtd"
   xmlns:inkscape="http://www.inkscape.org/namespaces/inkscape"
   version="1.1"
   id="svg130"
   width="446.85413"
   height="272.98849">
  <metadata
     id="metadata136">
    <rdf:RDF>
      <cc:Work
         rdf:about="">
        <dc:format>image/svg+xml</dc:format>
        <dc:type
           rdf:resource="http://purl.org/dc/dcmitype/StillImage" />
      </cc:Work>
    </rdf:RDF>
  </metadata>
  <defs
     id="defs134">
    <clipPath
       id="clipPath48"
       clipPathUnits="userSpaceOnUse">
      <path
         inkscape:connector-curvature="0"
         id="path46"
         d="M 0,500 H 500 V 0 H 0 Z" />
    </clipPath>
    <clipPath
       id="clipPath28"
       clipPathUnits="userSpaceOnUse">
      <path
         inkscape:connector-curvature="0"
         id="path26"
         d="M 0,500 H 500 V 0 H 0 Z" />
    </clipPath>
  </defs>
  <sodipodi:namedview
     pagecolor="#ffffff"
     bordercolor="#666666"
     borderopacity="1"
     objecttolerance="10"
     gridtolerance="10"
     guidetolerance="10"
     inkscape:pageopacity="0"
     inkscape:pageshadow="2"
     inkscape:window-width="640"
     inkscape:window-height="480"
     id="namedview132" />
  <inkscape:clipboard
     style="font-style:normal;font-variant:normal;font-weight:bold;font-stretch:normal;font-size:22.2505335px;line-height:normal;font-family:Montserrat;-inkscape-font-specification:Montserrat-Bold;font-variant-ligatures:normal;font-variant-position:normal;font-variant-caps:normal;font-variant-numeric:normal;font-variant-alternates:normal;font-variant-east_asian:normal;font-feature-settings:normal;text-indent:0;text-align:start;text-decoration:none;text-decoration-line:none;text-decoration-style:solid;text-decoration-color:#000000;letter-spacing:normal;word-spacing:normal;text-transform:none;writing-mode:lr-tb;direction:ltr;text-orientation:mixed;dominant-baseline:auto;baseline-shift:baseline;text-anchor:start;white-space:normal;shape-padding:0;opacity:1;vector-effect:none;fill:#e1a341;fill-opacity:1;stroke:none;stroke-width:1.3333333;stroke-linecap:butt;stroke-linejoin:miter;stroke-miterlimit:4;stroke-dasharray:none;stroke-dashoffset:0;stroke-opacity:1"
     min="109.90613,199.68764"
     max="556.76025,472.67614" />
  <text
     id="text16"
     style="font-variant:normal;font-weight:bold;font-stretch:normal;font-size:22.25053406px;font-family:Montserrat;-inkscape-font-specification:Montserrat-Bold;writing-mode:lr-tb;fill:#e1a341;fill-opacity:1;fill-rule:nonzero;stroke:none;stroke-width:1.33333325"
     x="73.093201"
     y="272.76599">
    <tspan
       id="tspan14"
       sodipodi:role="line"
       y="272.76599"
       x="73.093201 92.78492 114.61269 135.01643 154.6859 178.13797 189.90849 211.58052 223.35104 246.80312 268.54187 287.49933 310.50638 332.33417 354.85168"
       style="stroke-width:1.33333325">FRESH &amp; NATURAL</tspan>
  </text>
  <text
     id="text20"
     style="font-variant:normal;font-weight:bold;font-stretch:normal;font-size:16.61826706px;font-family:Raleway;-inkscape-font-specification:Raleway-Bold;writing-mode:lr-tb;fill:#eae5da;fill-opacity:1;fill-rule:nonzero;stroke:none;stroke-width:1.33333325"
     x="164.64014"
     y="235.32199">
    <tspan
       id="tspan18"
       sodipodi:role="line"
       y="235.32199"
       x="164.64014 177.50267 184.93103 200.28632 214.36198 227.0251 233.68903 244.57399 257.03769 269.75067"
       style="stroke-width:1.33333325">SINCE 1989</tspan>
  </text>
  <g
     id="g22"
     transform="matrix(1.3333333,0,0,-1.3333333,-109.90613,472.67612)">
    <g
       clip-path="url(#clipPath28)"
       id="g24">
      <g
         transform="translate(275.901,262.5349)"
         id="g30">
        <path
           inkscape:connector-curvature="0"
           id="path32"
           style="fill:#e1a341;fill-opacity:1;fill-rule:nonzero;stroke:none"
           d="m 0,0 -88.005,88.005 c -0.942,0.943 -2.557,0.535 -2.919,-0.748 -1.525,-5.414 -2.368,-18.935 16.796,-38.099 0,0 14.414,-12.896 25.049,-14.9 1.796,-0.339 3.441,-1.219 4.649,-2.59 L -13.301,-3.667 C -9.819,-7.619 -3.724,-7.812 0,-4.087 1.129,-2.958 1.129,-1.129 0,0" />
      </g>
      <g
         transform="translate(276.8024,306.3166)"
         id="g34">
        <path
           inkscape:connector-curvature="0"
           id="path36"
           style="fill:#e1a341;fill-opacity:1;fill-rule:nonzero;stroke:none"
           d="m 0,0 28.84,28.839 c 0.663,0.664 1.739,0.664 2.403,0 0.663,-0.663 0.663,-1.739 0,-2.403 L 2.403,-2.404 C 1.739,-3.067 0.664,-3.067 0,-2.404 -0.664,-1.74 -0.664,-0.664 0,0 m -5.83,5.83 28.84,28.839 c 0.664,0.664 1.739,0.664 2.403,0 0.664,-0.664 0.664,-1.739 0,-2.403 L -3.427,3.426 c -0.664,-0.663 -1.739,-0.663 -2.403,0 -0.664,0.664 -0.664,1.74 0,2.404 m -5.83,5.83 28.84,28.84 c 0.663,0.664 1.739,0.664 2.403,0 0.663,-0.664 0.663,-1.74 0,-2.404 L -9.257,9.257 c -0.664,-0.664 -1.739,-0.664 -2.403,0 -0.664,0.663 -0.664,1.739 0,2.403 m -39.993,-62.783 39.899,43.098 c 2.171,2.345 5.857,2.416 8.117,0.156 2.2,-2.2 5.767,-2.2 7.966,0 l 32.852,32.851 c 2.338,2.338 2.338,6.129 0,8.467 L 24.192,46.437 c -2.338,2.338 -6.129,2.338 -8.466,0 L -17.126,13.586 c -2.199,-2.2 -2.199,-5.767 0,-7.966 2.261,-2.261 2.189,-5.946 -0.156,-8.117 l -43.097,-39.899 c -2.623,-2.37 -2.726,-6.454 -0.227,-8.953 h 0.001 c 2.499,-2.5 6.582,-2.396 8.952,0.226" />
      </g>
    </g>
  </g>
  <text
     id="text40"
     style="font-variant:normal;font-weight:normal;font-stretch:normal;font-size:70.098526px;font-family:Garogier;-inkscape-font-specification:Garogier;writing-mode:lr-tb;fill:#eae5da;fill-opacity:1;fill-rule:nonzero;stroke:none;stroke-width:1.33333325"
     x="-4.8722706"
     y="202.68399">
    <tspan
       id="tspan38"
       sodipodi:role="line"
       y="202.68399"
       x="-4.8722706 42.023647 85.835228 123.12765 167.99071 213.83514 262.41342 309.30936 355.15381 406.81641"
       style="stroke-width:1.33333325">RESTAURANT</tspan>
  </text>
  <g
     id="g42"
     transform="matrix(1.3333333,0,0,-1.3333333,-109.90613,472.67612)">
    <g
       clip-path="url(#clipPath48)"
       id="g44">
      <g
         transform="translate(185.0944,276.7858)"
         id="g50">
        <path
           inkscape:connector-curvature="0"
           id="path52"
           style="fill:none;stroke:#e1a341;stroke-width:2;stroke-linecap:round;stroke-linejoin:round;stroke-miterlimit:4;stroke-dasharray:none;stroke-opacity:1"
           d="m 0,0 c 0,-7.343 5.638,-11.574 11.232,-11.574 15.13,0 16.731,23.945 0,23.945 -9.952,0 -15.473,-7.076 -21.09,-12.693 -8.244,-8.243 -14.282,-12.011 -24.757,-12.011 -26.181,0 -28.349,39.38 0,39.38 11.609,0 18.822,-6.475 19.757,-17.451" />
      </g>
      <g
         transform="translate(167.5836,286.384)"
         id="g54">
        <path
           inkscape:connector-curvature="0"
           id="path56"
           style="fill:#e1a341;fill-opacity:1;fill-rule:nonzero;stroke:none"
           d="m 0,0 c 0.07,-1.452 1.305,-2.572 2.756,-2.501 1.452,0.07 2.572,1.304 2.502,2.755 C 5.187,1.706 3.953,2.826 2.501,2.756 1.05,2.686 -0.07,1.452 0,0" />
      </g>
      <g
         transform="translate(134.9015,269.4128)"
         id="g58">
        <path
           inkscape:connector-curvature="0"
           id="path60"
           style="fill:none;stroke:#e1a341;stroke-width:2;stroke-linecap:round;stroke-linejoin:round;stroke-miterlimit:4;stroke-dasharray:none;stroke-opacity:1"
           d="m 0,0 c 0,0 -13.218,-11.054 -20.7,-3.573 -4.338,4.338 -1.65,12.036 4.2,12.036 4.492,0 6.696,-3.464 6.311,-5.942" />
      </g>
      <g
         transform="translate(123.007,272.8215)"
         id="g62">
        <path
           inkscape:connector-curvature="0"
           id="path64"
           style="fill:#e1a341;fill-opacity:1;fill-rule:nonzero;stroke:none"
           d="M 0,0 C -0.434,-0.943 -0.02,-2.06 0.923,-2.493 1.867,-2.927 2.983,-2.513 3.417,-1.57 3.85,-0.627 3.437,0.49 2.493,0.923 1.55,1.356 0.434,0.943 0,0" />
      </g>
      <g
         transform="translate(314.9049,276.7858)"
         id="g66">
        <path
           inkscape:connector-curvature="0"
           id="path68"
           style="fill:none;stroke:#e1a341;stroke-width:2;stroke-linecap:round;stroke-linejoin:round;stroke-miterlimit:4;stroke-dasharray:none;stroke-opacity:1"
           d="m 0,0 c 0,-7.343 -5.638,-11.574 -11.232,-11.574 -15.13,0 -16.732,23.945 0,23.945 9.952,0 15.473,-7.076 21.09,-12.693 8.244,-8.243 14.282,-12.011 24.757,-12.011 26.181,0 28.349,39.38 0,39.38 -11.609,0 -18.821,-6.475 -19.757,-17.451" />
      </g>
      <g
         transform="translate(327.1578,286.6384)"
         id="g70">
        <path
           inkscape:connector-curvature="0"
           id="path72"
           style="fill:#e1a341;fill-opacity:1;fill-rule:nonzero;stroke:none"
           d="m 0,0 c -0.07,-1.452 1.05,-2.686 2.502,-2.756 1.451,-0.07 2.685,1.05 2.756,2.502 C 5.328,1.197 4.208,2.431 2.756,2.501 1.305,2.572 0.07,1.452 0,0" />
      </g>
      <g
         transform="translate(365.0983,269.4128)"
         id="g74">
        <path
           inkscape:connector-curvature="0"
           id="path76"
           style="fill:none;stroke:#e1a341;stroke-width:2;stroke-linecap:round;stroke-linejoin:round;stroke-miterlimit:4;stroke-dasharray:none;stroke-opacity:1"
           d="M 0,0 C 0,0 13.218,-11.054 20.699,-3.573 25.037,0.765 22.35,8.463 16.5,8.463 12.008,8.463 9.804,4.999 10.188,2.521" />
      </g>
      <g
         transform="translate(373.5758,271.2516)"
         id="g78">
        <path
           inkscape:connector-curvature="0"
           id="path80"
           style="fill:#e1a341;fill-opacity:1;fill-rule:nonzero;stroke:none"
           d="M 0,0 C 0.434,-0.943 1.55,-1.357 2.493,-0.923 3.437,-0.49 3.85,0.626 3.416,1.57 2.982,2.513 1.866,2.926 0.923,2.493 -0.021,2.06 -0.434,0.943 0,0" />
      </g>
      <g
         transform="translate(208.2155,252.6291)"
         id="g82">
        <path
           inkscape:connector-curvature="0"
           id="path84"
           style="fill:none;stroke:#e1a341;stroke-width:2;stroke-linecap:round;stroke-linejoin:round;stroke-miterlimit:4;stroke-dasharray:none;stroke-opacity:1"
           d="M 0,0 H -122.214" />
      </g>
      <g
         transform="translate(86.1896,256.3889)"
         id="g86">
        <path
           inkscape:connector-curvature="0"
           id="path88"
           style="fill:#e1a341;fill-opacity:1;fill-rule:nonzero;stroke:none"
           d="m 0,0 c -2.076,0 -3.76,-1.684 -3.76,-3.76 0,-2.076 1.684,-3.76 3.76,-3.76 2.076,0 3.759,1.684 3.759,3.76 C 3.759,-1.684 2.076,0 0,0" />
      </g>
      <g
         transform="translate(177.9601,178.0153)"
         id="g90">
        <path
           inkscape:connector-curvature="0"
           id="path92"
           style="fill:none;stroke:#e1a341;stroke-width:2;stroke-linecap:round;stroke-linejoin:round;stroke-miterlimit:4;stroke-dasharray:none;stroke-opacity:1"
           d="M 0,0 H -91.958" />
      </g>
      <g
         transform="translate(86.1896,181.7751)"
         id="g94">
        <path
           inkscape:connector-curvature="0"
           id="path96"
           style="fill:#e1a341;fill-opacity:1;fill-rule:nonzero;stroke:none"
           d="m 0,0 c -2.076,0 -3.76,-1.684 -3.76,-3.76 0,-2.076 1.684,-3.76 3.76,-3.76 2.076,0 3.759,1.684 3.759,3.76 C 3.759,-1.684 2.076,0 0,0" />
      </g>
      <g
         transform="translate(291.7838,252.6291)"
         id="g98">
        <path
           inkscape:connector-curvature="0"
           id="path100"
           style="fill:none;stroke:#e1a341;stroke-width:2;stroke-linecap:round;stroke-linejoin:round;stroke-miterlimit:4;stroke-dasharray:none;stroke-opacity:1"
           d="M 0,0 H 122.214" />
      </g>
      <g
         transform="translate(413.8102,248.8688)"
         id="g102">
        <path
           inkscape:connector-curvature="0"
           id="path104"
           style="fill:#e1a341;fill-opacity:1;fill-rule:nonzero;stroke:none"
           d="M 0,0 C 2.076,0 3.76,1.684 3.76,3.76 3.76,5.836 2.076,7.52 0,7.52 -2.076,7.52 -3.76,5.836 -3.76,3.76 -3.76,1.684 -2.076,0 0,0" />
      </g>
      <g
         transform="translate(322.0397,178.0153)"
         id="g106">
        <path
           inkscape:connector-curvature="0"
           id="path108"
           style="fill:none;stroke:#e1a341;stroke-width:2;stroke-linecap:round;stroke-linejoin:round;stroke-miterlimit:4;stroke-dasharray:none;stroke-opacity:1"
           d="M 0,0 H 91.958" />
      </g>
      <g
         transform="translate(413.8102,174.2556)"
         id="g110">
        <path
           inkscape:connector-curvature="0"
           id="path112"
           style="fill:#e1a341;fill-opacity:1;fill-rule:nonzero;stroke:none"
           d="M 0,0 C 2.076,0 3.76,1.684 3.76,3.76 3.76,5.836 2.076,7.52 0,7.52 -2.076,7.52 -3.76,5.836 -3.76,3.76 -3.76,1.684 -2.076,0 0,0" />
      </g>
      <g
         transform="translate(191.965,303.8327)"
         id="g114">
        <path
           inkscape:connector-curvature="0"
           id="path116"
           style="fill:none;stroke:#e1a341;stroke-width:2;stroke-linecap:round;stroke-linejoin:round;stroke-miterlimit:10;stroke-dasharray:none;stroke-opacity:1"
           d="m 0,0 c 0,4.254 -3.448,7.702 -7.702,7.702 -4.254,0 -7.702,-3.448 -7.702,-7.702 0,-4.254 3.448,-7.703 7.702,-7.703 C -3.448,-7.703 0,-4.254 0,0 Z" />
      </g>
      <g
         transform="translate(308.0914,303.8327)"
         id="g118">
        <path
           inkscape:connector-curvature="0"
           id="path120"
           style="fill:none;stroke:#e1a341;stroke-width:2;stroke-linecap:round;stroke-linejoin:round;stroke-miterlimit:10;stroke-dasharray:none;stroke-opacity:1"
           d="m 0,0 c 0,4.254 3.448,7.702 7.702,7.702 4.254,0 7.702,-3.448 7.702,-7.702 0,-4.254 -3.448,-7.703 -7.702,-7.703 C 3.448,-7.703 0,-4.254 0,0 Z" />
      </g>
      <g
         transform="translate(159.3038,284.1423)"
         id="g122">
        <path
           inkscape:connector-curvature="0"
           id="path124"
           style="fill:none;stroke:#e1a341;stroke-width:2;stroke-linecap:round;stroke-linejoin:round;stroke-miterlimit:10;stroke-dasharray:none;stroke-opacity:1"
           d="m 0,0 c 0,4.682 -3.795,8.476 -8.476,8.476 -4.681,0 -8.476,-3.794 -8.476,-8.476 0,-4.681 3.795,-8.476 8.476,-8.476 C -3.795,-8.476 0,-4.681 0,0 Z" />
      </g>
      <g
         transform="translate(340.7526,284.1423)"
         id="g126">
        <path
           inkscape:connector-curvature="0"
           id="path128"
           style="fill:none;stroke:#e1a341;stroke-width:2;stroke-linecap:round;stroke-linejoin:round;stroke-miterlimit:10;stroke-dasharray:none;stroke-opacity:1"
           d="m 0,0 c 0,4.682 3.795,8.476 8.476,8.476 4.681,0 8.476,-3.794 8.476,-8.476 0,-4.681 -3.795,-8.476 -8.476,-8.476 C 3.795,-8.476 0,-4.681 0,0 Z" />
      </g>
    </g>
  </g>
</svg>
