<?xml version="1.0" encoding="UTF-8" standalone="no"?>
<!-- Created with Inkscape (http://www.inkscape.org/) -->

<svg
   xmlns:dc="http://purl.org/dc/elements/1.1/"
   xmlns:cc="http://creativecommons.org/ns#"
   xmlns:rdf="http://www.w3.org/1999/02/22-rdf-syntax-ns#"
   xmlns:svg="http://www.w3.org/2000/svg"
   xmlns="http://www.w3.org/2000/svg"
   xmlns:sodipodi="http://sodipodi.sourceforge.net/DTD/sodipodi-0.dtd"
   xmlns:inkscape="http://www.inkscape.org/namespaces/inkscape"
   version="1.1"
   id="svg819"
   width="196.34755"
   height="116.01961">
  <metadata
     id="metadata825">
    <rdf:RDF>
      <cc:Work
         rdf:about="">
        <dc:format>image/svg+xml</dc:format>
        <dc:type
           rdf:resource="http://purl.org/dc/dcmitype/StillImage" />
      </cc:Work>
    </rdf:RDF>
  </metadata>
  <defs
     id="defs823" />
  <sodipodi:namedview
     pagecolor="#ffffff"
     bordercolor="#666666"
     borderopacity="1"
     objecttolerance="10"
     gridtolerance="10"
     guidetolerance="10"
     inkscape:pageopacity="0"
     inkscape:pageshadow="2"
     inkscape:window-width="640"
     inkscape:window-height="480"
     id="namedview821" />
  <inkscape:clipboard
     style="font-variant-east_asian:normal;opacity:1;vector-effect:none;fill:#000000;fill-opacity:0.93243241;stroke-width:1;stroke-linecap:butt;stroke-linejoin:miter;stroke-miterlimit:4;stroke-dasharray:none;stroke-dashoffset:0;stroke-opacity:1"
     min="343.43078,35.035655"
     max="539.77833,151.05526" />
  <path
     inkscape:connector-curvature="0"
     id="path817"
     d="m 78.400459,112.42576 c -0.80432,-1.925 -1.90636,-3.5 -2.44898,-3.5 -1.44199,0 -1.20787,4.74404 0.26342,5.33772 0.6875,0.27741 -0.0426,0.53991 -1.62244,0.58333 -2.17793,0.0599 -2.627,-0.22328 -1.85731,-1.17105 1.3933,-1.71565 1.97974,-10.63688 0.73677,-11.2081 -0.55386,-0.25454 0.79298,-0.36809 2.99298,-0.25234 3.33954,0.1757 4.05396,0.59105 4.32677,2.51549 0.17972,1.26778 -0.19496,2.93367 -0.83262,3.702 -1.24568,1.50096 -0.4657,5.49295 1.07324,5.49295 0.51294,0 0.93261,0.45 0.93261,1 0,2.29551 -2.20773,0.74706 -3.56444,-2.5 z m 1.06444,-6.99999 c 0,-2.65478 -3.09578,-3.15374 -3.76194,-0.60633 -0.61775,2.36228 0.0925,3.2856 2.21318,2.87719 0.85182,-0.16404 1.54876,-1.18593 1.54876,-2.27086 z m 5.5,4.49999 c 0.31551,-3.3 0.21959,-5.99999 -0.21317,-5.99999 -0.43275,0 -0.78683,-0.37206 -0.78683,-0.82681 0,-1.40251 6.42514,-0.0562 7.75,1.62389 1.74515,2.2131 1.56038,7.74967 -0.32143,9.63148 -0.86428,0.86429 -2.79335,1.57143 -4.28682,1.57143 h -2.7154 z m 6.28308,1.65217 c 1.09586,-3.28921 -0.41397,-7.65216 -2.64809,-7.65216 -1.5334,0 -3.24825,8.19869 -2.10258,10.05242 1.15127,1.8628 3.7714,0.53899 4.75067,-2.40026 z m 5.21692,-2.19763 v -6.54545 l 3.5,0.29546 c 3.006901,0.25383 3.545391,0.69129 3.822181,3.10507 0.2693,2.34857 -0.18197,2.99991 -2.75,3.96924 -3.367191,1.27097 -4.160501,4.29008 -1.322181,5.03181 1.186581,0.31009 0.945121,0.49467 -0.75,0.57333 -2.42385,0.11247 -2.5,-0.0834 -2.5,-6.42946 z m 6.000001,-2.95454 c 0,-1.31272 -0.77318,-2.1098 -2.25,-2.31954 -1.845681,-0.26213 -2.250001,0.15469 -2.250001,2.31954 0,2.16486 0.40432,2.58168 2.250001,2.31955 1.47682,-0.20974 2.25,-1.00682 2.25,-2.31955 z m 5.35004,3.87221 c 0.24475,-3.93696 -0.056,-5.90095 -1,-6.52962 -0.88604,-0.59008 0.0247,-0.80346 2.64996,-0.62084 l 4,0.27826 v 4.82962 c 0,3.62631 0.48364,5.18351 1.94113,6.25 1.42364,1.04171 1.54777,1.42037 0.46561,1.42037 -0.81154,0 -2.27299,-1.35 -3.24767,-3 -0.97468,-1.65 -2.1967,-3 -2.71561,-3 -1.41152,0 -1.13847,4.75465 0.30654,5.33772 0.6875,0.27741 0.35,0.54053 -0.75,0.5847 -1.81202,0.0728 -1.9671,-0.44892 -1.64996,-5.55021 z m 4.04568,-2.2866 c 1.72466,-1.09205 0.725,-4.0856 -1.36434,-4.0856 -0.96681,0 -1.53138,0.92167 -1.53138,2.49999 0,2.65662 0.64581,3.01024 2.89572,1.58561 z m 6.10428,7.12272 c 0,-0.57291 0.49233,-1.20577 1.09406,-1.40635 1.3127,-0.43757 0.159,-9.80197 -1.2076,-9.80197 -0.48755,0 -0.88646,-0.45 -0.88646,-1 0,-0.55 2.025,-1 4.5,-1 3.64912,0 4.48507,0.3309 4.42105,1.75 -0.0472,1.04544 -0.28201,1.24674 -0.58333,0.5 -0.27741,-0.6875 -1.59189,-1.25 -2.92105,-1.25 -1.75,0 -2.41667,0.55172 -2.41667,2 0,2.18847 2.52806,2.75654 3.33772,0.75 0.27741,-0.6875 0.53991,-0.0266 0.58333,1.46861 0.0588,2.02294 -0.30489,2.57132 -1.42105,2.14301 -1.09694,-0.42094 -1.5,0.1249 -1.5,2.03138 0,2.09423 0.47804,2.60699 2.43045,2.60699 1.72539,0 2.55617,-0.65271 2.86382,-2.25 0.37157,-1.92915 0.45279,-1.85784 0.56955,0.5 0.0858,1.73269 -0.37247,2.75 -1.23882,2.75 -0.75625,0 -2.78125,0.28125 -4.5,0.625 -1.9,0.38 -3.125,0.21667 -3.125,-0.41667 z m 12.72584,-2.86219 c -0.4386,-2.29438 -0.36797,-2.33225 1.38726,-0.74379 1.47281,1.33288 2.14654,1.42706 3.3087,0.46255 2.01621,-1.6733 0.97465,-3.73105 -2.50197,-4.943 -2.15278,-0.75047 -2.91983,-1.66017 -2.91983,-3.46288 0,-3.57415 5.19258,-5.205501 6.41655,-2.01588 0.92858,2.41983 -0.22966,2.99472 -1.77518,0.88109 -0.73588,-1.00637 -1.85623,-1.50946 -2.48967,-1.11798 -2.18128,1.34811 -1.14371,3.57026 2.3483,5.0293 5.21135,2.17745 4.58562,6.40042 -1.15602,7.80182 -1.68657,0.41166 -2.25664,-1.4e-4 -2.61814,-1.89123 z m -67.730011,0.14883 c -1.83248,-2.208 -1.66459,-6.82536 0.36056,-9.91612 2.1492,-3.280091 4.14328,-3.272081 6.30383,0.0253 1.53583,2.34397 1.56311,3.01845 0.27306,6.74999 -1.57653,4.56019 -4.61704,5.93672 -6.93745,3.14079 z m 4.96899,-1.42923 c 1.47437,-2.75488 1.27998,-7.61767 -0.35887,-8.9778 -3.27406,-2.717231 -6.53544,6.58257 -3.40595,9.71206 1.6768,1.6768 2.56742,1.5031 3.76482,-0.73426 z m -16.75695,-5.81428 c 0.1856,-4.60526 0.70956,-7.249071 1.43682,-7.250001 0.81095,-10e-4 0.89079,1.09189 0.27386,3.748551 -1.32345,5.69907 -1.01966,7.07634 0.82714,3.75 l 1.66562,-3 0.61488,3 0.61488,2.99999 1.14197,-3.90614 c 0.62809,-2.14839 0.90729,-4.28589 0.62046,-4.750001 -0.28684,-0.46412 0.22817,-0.84385 1.14448,-0.84385 0.92126,0 1.45216,0.55878 1.18764,1.250001 -0.2631,0.6875 -1.31686,3.6125 -2.34171,6.49999 -2.04753,5.76895 -3.3903,6.75613 -3.4005,2.5 l -0.007,-2.75 -2.03554,3 -2.03554,3 0.29213,-7.24854 z m 90.792131,4.62077 c 0,-2.0735 0.10247,-2.11436 1.27638,-0.50893 0.79985,1.09385 1.91989,1.49861 3,1.08414 2.79602,-1.07294 1.98111,-3.31302 -1.77638,-4.88298 -2.21274,-0.92455 -3.5,-2.14318 -3.5,-3.31342 0,-4.027431 5.32669,-5.933791 6.28975,-2.251031 0.6023,2.303201 -0.79138,2.741121 -1.64491,0.516861 -0.68322,-1.780451 -3.64484,-0.905571 -3.64484,1.07671 0,0.75877 1.60586,2.05056 3.56858,2.87064 3.03415,1.26775 3.52087,1.90623 3.25,4.26341 -0.26616,2.31621 -0.85332,2.82393 -3.56858,3.08573 -2.79828,0.2698 -3.25,1e-5 -3.25,-1.94113 z M 38.461949,101.32033 c -8.92892,-3.119651 -19.96015,-8.264791 -19.24756,-8.977381 0.30147,-0.30147 3.18117,0.76056 6.39932,2.36007 3.21816,1.59952 9.00119,3.97116 12.85119,5.27033 7.65032,2.581581 8.03102,2.754731 7.41372,3.372041 -0.23079,0.23079 -3.56829,-0.68049 -7.41667,-2.02506 z m 114.502951,2.1764 c 0,-0.23597 2.5875,-1.17798 5.75,-2.09335 3.1625,-0.91537 9.08383,-3.200981 13.1585,-5.079121 8.59509,-3.96175 10.84064,-3.82555 2.94093,0.17838 -8.3916,4.253241 -21.84943,8.561141 -21.84943,6.994091 z M 0.71489896,81.263488 C 1.638679,80.890738 1.964899,76.754761 1.964899,65.41576 c 0,-13.771822 -0.17924,-15.390183 -1.75000004,-15.800665 -0.9625,-0.251528 1.40000004,-0.502633 5.25000004,-0.558012 4.37533,-0.06294 6.47944,0.228974 5.61165,0.778521 -1.35415,0.857555 -1.54608,4.886979 -1.20698,25.340165 l 0.0953,5.75 h 5 c 4.55073,0 5,-0.206667 5,-2.3 0,-2.274574 1.65136,-4.7 3.2,-4.7 0.44,0 0.8,1.623145 0.8,3.606989 0,2.878259 0.31958,3.484357 1.58179,3 0.86998,-0.333844 1.71291,-0.606989 1.87317,-0.606989 0.16026,0 3.13432,-6.975 6.60902,-15.5 3.47471,-8.525 6.63275,-15.5 7.01787,-15.5 0.38513,0 3.04573,5.7375 5.91245,12.75 8.4523,20.675816 8.18231,20.270669 12.42392,18.643011 1.34065,-0.514456 1.58178,-2.793567 1.58178,-14.95031 0,-12.605341 -0.21204,-14.466827 -1.75,-15.362602 -1.37408,-0.800328 -0.76293,-1.025814 2.84502,-1.04969 5.62212,-0.03721 6.32972,0.672054 12.465,12.494286 2.56181,4.936418 4.9932,9.337186 5.40309,9.779484 0.40989,0.442299 2.45695,-3.759138 4.54903,-9.336525 2.09207,-5.577387 4.43983,-10.776768 5.21725,-11.554179 0.77983,-0.779835 3.28666,-1.399843 5.59204,-1.383066 3.32452,0.02419 3.82089,0.238736 2.42857,1.04969 -1.53846,0.896073 -1.75,2.759989 -1.75,15.419901 0,12.659912 0.21154,14.523828 1.75,15.419901 1.3119,0.764112 0.0123,1.026894 -5.19113,1.04969 -5.82665,0.02553 -6.66417,-0.172106 -5.2162,-1.230891 1.49656,-1.094311 1.68736,-2.844939 1.44113,-13.222901 l -0.2838,-11.961602 -5.37575,13.222901 c -2.95666,7.272596 -5.65666,13.221873 -6,13.220614 -0.34333,-0.0013 -3.54925,-5.619122 -7.12425,-12.484142 -3.575,-6.865019 -6.77902,-12.48899 -7.12006,-12.497712 -0.34103,-0.0087 -0.59912,5.046642 -0.57351,11.234142 0.0426,10.299428 0.22175,11.352625 2.12006,12.464565 1.74882,1.024372 0.79443,1.220113 -6.0947,1.25 -4.49252,0.01949 -8.92386,-0.254533 -9.84742,-0.608939 -0.92357,-0.354405 -2.51938,-2.604405 -3.54625,-5 l -1.86704,-4.355626 h -5.42859 c -5.33466,0 -5.4543,0.06449 -6.91536,3.727632 -1.34268,3.366368 -1.32882,3.847861 0.14305,4.968196 1.3172,1.002607 -1.53511,1.231522 -14.87018,1.193421 -9.075,-0.02593 -15.93750004,-0.274117 -15.25000004,-0.55153 z M 41.964899,70.008674 c 0,-0.504402 -0.93841,-3.091902 -2.08536,-5.75 l -2.08536,-4.832905 -1.78763,3.5 c -0.9832,1.925 -2.10011,4.5125 -2.48203,5.75 -0.65003,2.106274 -0.40263,2.25 3.873,2.25 2.51206,0 4.56738,-0.412693 4.56738,-0.917095 z M 105.7149,81.263488 c 0.92372,-0.37273 1.25,-4.506725 1.25,-15.837719 0,-11.311968 -0.32783,-15.474971 -1.25,-15.873394 -0.6875,-0.297033 2.8,-0.495331 7.75,-0.44066 10.14231,0.112017 15.21906,1.846499 16.13957,5.514127 1.04199,4.151617 -0.39492,6.984829 -4.38091,8.637991 -2.13659,0.886137 -2.96214,1.581117 -1.91295,1.610408 3.19725,0.08926 7.55743,3.334064 8.1587,6.071622 0.318,1.447852 0.11247,3.857399 -0.45675,5.354551 -1.55283,4.084251 -6.39229,5.638888 -17.26554,5.546408 -5.10517,-0.04342 -8.71962,-0.305921 -8.03212,-0.583334 z m 17.01858,-1.772968 c 0.28643,-0.286428 0.71986,-2.668172 0.96318,-5.292764 0.53947,-5.818959 -2.18884,-9.586917 -6.57428,-9.079482 -1.46161,0.169122 -2.54498,0.644995 -2.40748,1.057495 0.1375,0.4125 0.25,3.958879 0.25,7.880842 v 7.130843 l 3.6239,-0.588079 c 1.99315,-0.323443 3.85826,-0.822428 4.14468,-1.108855 z M 120.8811,61.30517 c 3.15265,-4.007939 0.51537,-11.379401 -4.07119,-11.379401 -1.61763,0 -1.84501,0.862675 -1.84501,7 0,6.245468 0.20776,7 1.92742,7 1.06008,0 2.85503,-1.17927 3.98878,-2.620599 z m 15.8338,20.023534 c 0.92089,-0.419631 1.25,-4.606723 1.25,-15.902935 0,-11.311326 -0.32788,-15.475309 -1.25,-15.874597 -0.6875,-0.297695 2.575,-0.500078 7.25,-0.449738 10.84462,0.116772 15.3315,2.138121 18.0532,8.133002 3.6564,8.053697 1.82048,17.508902 -4.23727,21.8224 -2.73494,1.947449 -4.68188,2.339173 -12.77139,2.569599 -5.2495,0.149529 -8.98204,0.01555 -8.29454,-0.297731 z m 15.02662,-2.152935 c 2.6657,-2.334595 4.22338,-7.405924 4.22338,-13.75 0,-9.213854 -3.38944,-15.498094 -8.36078,-15.501439 -2.10653,-0.0014 -2.13465,0.235431 -1.84032,15.5 0.27531,14.278142 0.44413,15.501439 2.13922,15.501439 1.01217,0 2.7395,-0.7875 3.8385,-1.75 z m 13.81062,1.602132 c 1.88587,-0.914826 5.7274,-9.091718 12.96757,-27.602132 1.77007,-4.525395 3.12368,-5.346516 4.12125,-2.5 0.69868,1.993655 7.57053,18.784049 10.08714,24.646515 0.91998,2.143083 2.28175,4.505583 3.02617,5.25 1.13798,1.13798 0.77437,1.353485 -2.28368,1.353485 -5.06527,0 -7.01226,-1.309526 -8.87734,-5.970827 -1.60186,-4.003436 -1.64637,-4.029173 -6.96856,-4.029173 -5.29783,0 -5.37317,0.04265 -6.88858,3.900518 -1.47173,3.746667 -1.44813,3.941217 0.59831,4.93232 1.76657,0.855559 1.27643,1.031801 -2.86952,1.031801 -4.08214,0 -4.61684,-0.185867 -2.91276,-1.012507 z M 181.9649,70.008674 c 0,-0.504402 -0.93841,-3.091902 -2.08536,-5.75 l -2.08537,-4.832905 -1.78763,3.5 c -0.98319,1.925 -2.1001,4.5125 -2.48202,5.75 -0.65004,2.106274 -0.40264,2.25 3.87299,2.25 2.51207,0 4.56739,-0.412693 4.56739,-0.917095 z M 64.571889,43.343982 c -0.33384,-0.869984 -0.60699,-2.669984 -0.60699,-4 0,-2.456887 -1.37573,-3.237318 -2.5,-1.418213 -1.00804,1.631054 -5.06325,1.140081 -6.84501,-0.828741 -4.01336,-4.434718 -0.73762,-10.226244 5.64828,-9.986174 3.01054,0.113178 3.71094,0.526548 3.77324,2.226945 0.0421,1.148383 0.21007,2.76297 0.3733,3.58797 0.16324,0.825 0.62103,3.8625 1.01733,6.75 0.70899,5.165826 0.3318,6.774382 -0.86015,3.668213 z m -3.17842,-6.989642 c 0.86429,-0.864285 1.57143,-2.407142 1.57143,-3.428571 0,-2.17698 -2.54903,-5 -4.51472,-5 -1.33625,0 -4.48528,3.666628 -4.48528,5.222506 0,1.089537 3.80458,4.777494 4.92857,4.777494 0.51072,0 1.63572,-0.707143 2.5,-1.571429 z m 71.068061,4.986962 2.73401,-3.584468 -1.59405,-5.603468 c -0.87673,-3.081908 -1.39121,-5.806308 -1.1433,-6.054221 0.54633,-0.546331 2.50671,4.40618 2.50671,6.332707 0,2.889734 1.88943,2.346492 3.94274,-1.133602 1.17619,-1.993499 2.35294,-3.410132 2.615,-3.148073 0.97731,0.977305 -9.44811,16.775592 -11.07035,16.775592 -0.39862,0 0.50554,-1.61301 2.00924,-3.584467 z m -61.051251,-6.77716 c -0.32601,-1.298895 -0.4066,-3.886395 -0.17909,-5.75 0.39059,-3.199529 0.42256,-3.158333 0.57368,0.739182 0.20331,5.243768 2.67988,7.749578 4.79725,4.853898 0.78144,-1.06868 1.9643,-3.751694 2.62857,-5.962253 l 1.20778,-4.0192 0.6449,3 c 1.02115,4.750259 0.96889,8.5 -0.11847,8.5 -0.55,0 -1.01368,-1.0125 -1.03041,-2.25 -0.0296,-2.187859 -0.0617,-2.194763 -1.16453,-0.25 -2.3639,4.168663 -6.44086,4.799274 -7.35968,1.138373 z M 123.3043,32.225458 c 0.31815,-4.62838 0.12668,-5.245788 -1.74097,-5.613818 -1.99125,-0.392386 -1.98351,-0.420463 0.15157,-0.549689 1.8133,-0.109751 2.25,-0.729902 2.25,-3.195199 0,-1.682459 0.38965,-2.8182 0.86589,-2.523867 0.47624,0.294332 0.6559,1.63365 0.39924,2.976262 -0.37257,1.948974 0.007,2.531144 1.88411,2.887685 2.32586,0.441842 2.32693,0.448015 0.10076,0.582755 -1.82791,0.110635 -2.26319,0.74587 -2.32029,3.386182 -0.0386,1.7875 -0.49272,4.15 -1.00903,5.25 -0.6837,1.456612 -0.84163,0.587106 -0.58128,-3.200311 z m -34.727591,2.169263 c -3.3339,-3.333907 -1.05032,-9.701876 3.44325,-9.601803 5.54089,0.123396 5.85605,0.357302 6.52913,4.845713 0.36121,2.408741 0.37192,4.664365 0.0238,5.012497 -1.49308,1.493082 -8.42446,1.315288 -9.99616,-0.256407 z m 7.68332,-1.564175 c 0.54966,-0.877373 0.69954,-2.789873 0.33307,-4.25 -0.53244,-2.121429 -1.25811,-2.654777 -3.61207,-2.654777 -4.07985,0 -5.7763,3.190877 -3.524,6.628327 1.81821,2.774941 5.15284,2.910449 6.803,0.27645 z m 9.251001,-14.557171 c 0.36906,-9.8161838 0.84898,-18.03693078 1.0665,-18.26832578 0.21751,-0.231396 0.36899,7.51978798 0.33662,17.22485278 -0.0357,10.708815 -0.45497,17.890387 -1.06649,18.268326 -0.67193,0.415276 -0.78408,-5.323369 -0.33663,-17.224853 z m 7.52416,13.902394 c 0.0387,-2.0625 0.45702,-4.65 0.92971,-5.75 0.61834,-1.438949 0.87915,-0.386977 0.92971,3.75 0.0393,3.213524 -0.37084,5.75 -0.92971,5.75 -0.55,0 -0.96837,-1.6875 -0.92971,-3.75 z M 73.638509,21.549672 c 0.33077,-2.038299 0.17173,-3.623903 -0.36348,-3.623903 -1.45246,0 0.13321,-10.0379308 1.74281,-11.0327148 0.76403,-0.472197 1.62343,-0.624257 1.90977,-0.33791 0.28635,0.286346 -0.26312,0.959239 -1.22104,1.495317 -1.83853,1.028893 -2.58732,8.8753078 -0.84698,8.8753078 0.50997,0 0.54757,1.539098 0.0874,3.579224 -1.08592,4.814848 -2.04453,5.580167 -1.30852,1.044679 z m 4.48429,-2.623903 c 0,-1.375 0.22697,-1.9375 0.50438,-1.25 0.27742,0.6875 0.27742,1.8125 0,2.5 -0.27741,0.6875 -0.50438,0.125 -0.50438,-1.25 z m 2.90978,-0.113464 c -0.0543,-2.095451 0.37829,-2.590975 2.18232,-2.5 1.59447,0.08041 2.28877,0.773463 2.38306,2.378789 0.11067,1.884403 0.0569,1.926442 -0.31956,0.25 -0.59331,-2.641881 -1.74794,-2.554276 -3.093,0.234675 -1.07977,2.238877 -1.08547,2.23708 -1.15282,-0.363464 z m 6.68662,0.863464 c -0.75812,-2.061535 0.29055,-3.750001 2.32904,-3.750001 2.3979,0 2.55935,2.974189 0.16666,3.070286 -1.49644,0.0601 -1.46021,0.19481 0.25,0.929715 1.94514,0.835857 1.94122,0.861357 -0.14301,0.929715 -1.17865,0.03866 -2.34987,-0.492215 -2.60269,-1.179715 z m 7.2457,0.25 c 1,-0.64625 1.08333,-0.974479 0.25,-0.984687 -0.6875,-0.0084 -1.25,-0.690313 -1.25,-1.515313 0,-0.825 0.7875,-1.49311 1.75,-1.484688 1.36324,0.01193 1.45015,0.205308 0.39324,0.875001 -0.94581,0.599292 -1.02153,1.066872 -0.25,1.543704 1.69765,1.049205 1.31468,2.567802 -0.64324,2.55067 -1.49555,-0.01309 -1.5319,-0.156261 -0.25,-0.984687 z m 5.070291,-1.166667 c -0.0387,-0.916666 -0.475961,-1.816666 -0.971771,-2 -0.49581,-0.183333 -0.31126,-0.875788 0.41011,-1.538787 1.706461,-1.568376 2.555511,0.343836 1.423271,3.205454 -0.62316,1.574981 -0.80627,1.645817 -0.86161,0.333333 z"
     style="fill:#000000;fill-opacity:0.93243241" />
</svg>
