<?xml version="1.0" encoding="UTF-8" standalone="no"?>
<svg
   xmlns:dc="http://purl.org/dc/elements/1.1/"
   xmlns:cc="http://creativecommons.org/ns#"
   xmlns:rdf="http://www.w3.org/1999/02/22-rdf-syntax-ns#"
   xmlns:svg="http://www.w3.org/2000/svg"
   xmlns="http://www.w3.org/2000/svg"
   id="svg12"
   version="1.1"
   viewBox="0 0 119.50615 96.03588"
  >
  <metadata
     id="metadata18">
    <rdf:RDF>
      <cc:Work
         rdf:about="">
        <dc:format>image/svg+xml</dc:format>
        <dc:type
           rdf:resource="http://purl.org/dc/dcmitype/StillImage" />
        <dc:title></dc:title>
      </cc:Work>
    </rdf:RDF>
  </metadata>
  <defs
     id="defs16" />
  <g
     transform="translate(95.354818,0.49693477)"
     id="g10">
    <g
       id="g8">
      <path
         id="path894"
         d="m -78.927869,94.098295 c -0.304056,-0.792356 -1.199645,-1.440647 -1.990199,-1.440647 -2.774816,0 -8.516048,-6.251422 -11.442187,-12.458987 -2.852889,-6.052172 -2.956557,-6.735384 -2.991575,-19.715474 -0.03303,-12.24247 0.174624,-13.918875 2.319843,-18.728418 6.150673,-13.789693 18.985772,-27.158551 35.50031,-36.9766191 2.665574,-1.5847123 4.854662,-3.4215378 4.864639,-4.0818342 0.03187,-2.108784 3.033536,-1.288865 5.162289,1.4100991 4.505312,5.7121118 4.618177,6.6669318 1.134876,9.6008662 -1.746855,1.471353 -5.600233,4.133278 -8.563061,5.915391 -6.775675,4.075505 -15.085569,12.259411 -17.893083,17.621803 -1.183272,2.260068 -2.907901,6.824235 -3.832507,10.142591 -1.614176,5.793178 -1.61194,6.07039 0.05616,6.96313 0.955495,0.511365 4.582892,0.929754 8.060885,0.929754 6.832418,0 13.710242,2.742991 17.524117,6.988912 2.480146,2.761104 5.09149,9.543268 5.09149,13.223582 0,6.529615 -6.070904,18.204772 -9.466203,18.204772 -0.595247,0 -1.622088,0.864389 -2.281867,1.920864 -1.071632,1.715956 -2.239752,1.920863 -10.950347,1.920863 -7.781342,0 -9.862406,-0.290974 -10.303576,-1.440648 z m 66.617101,0.619489 c 0,-0.451638 -1.957888,-2.058729 -4.350861,-3.571314 -8.403894,-5.31205 -12.872578,-16.178095 -12.913996,-31.401645 -0.02726,-10.019238 2.604962,-18.687554 8.299482,-27.331495 C -16.935756,25.824881 -4.864549,13.591079 1.16475,9.6701681 3.525606,8.1348785 6.628252,6.0819559 8.059516,5.1081175 9.49078,4.1342792 11.10784,3.3375024 11.65299,3.3375024 c 0.545151,0 1.531005,-0.8643885 2.190783,-1.9208634 1.801175,-2.8841413 4.031931,-2.3225993 5.840606,1.4702436 0.889408,1.8651089 2.266042,3.6401259 3.059186,3.9444821 2.329719,0.8939975 1.656601,3.6725163 -1.199118,4.9497453 -2.701493,1.208252 -3.318531,1.572147 -10.804856,6.372113 -6.423194,4.118329 -15.886475,14.183656 -18.287636,19.451089 -2.882615,6.323595 -4.094595,12.725536 -2.72219,14.379183 0.702242,0.84615 3.254668,1.296455 7.348601,1.296455 13.95287,0 23.265541,8.458098 23.265541,21.130577 0,5.74556 -3.475533,13.395648 -7.284144,16.033324 -1.37674,0.95347 -3.326378,2.489921 -4.332526,3.414337 -1.487565,1.366711 -3.62391,1.680755 -11.433689,1.680755 -5.282374,0 -9.604316,-0.369521 -9.604316,-0.821159 z"
         style="fill:#f8f9f9;stroke-width:0.96043164" />
    </g>
  </g>
</svg>
