<svg xmlns="http://www.w3.org/2000/svg"><symbol id="sprite-angle" viewBox="0 0 612 612"><title>angle</title><path d="M604.501 440.509L325.398 134.956c-5.331-5.357-12.423-7.627-19.386-7.27-6.989-.357-14.056 1.913-19.387 7.27L7.499 440.509c-9.999 10.024-9.999 26.298 0 36.323s26.223 10.024 36.222 0l262.293-287.164L568.28 476.832c9.999 10.024 26.222 10.024 36.221 0 9.999-10.023 9.999-26.298 0-36.323z"/></symbol><symbol class="svg-inline--fa fa-cc-apple-pay fa-w-18" id="sprite-cc-apple-pay-brands" viewBox="0 0 576 512"><title>cc-apple-pay-brands</title><path fill="currentColor" d="M302.2 218.4c0 17.2-10.5 27.1-29 27.1h-24.3v-54.2h24.4c18.4 0 28.9 9.8 28.9 27.1zm47.5 62.6c0 8.3 7.2 13.7 18.5 13.7 14.4 0 25.2-9.1 25.2-21.9v-7.7l-23.5 1.5c-13.3.9-20.2 5.8-20.2 14.4zM576 79v352c0 26.5-21.5 48-48 48H48c-26.5 0-48-21.5-48-48V79c0-26.5 21.5-48 48-48h480c26.5 0 48 21.5 48 48zM127.8 197.2c8.4.7 16.8-4.2 22.1-10.4 5.2-6.4 8.6-15 7.7-23.7-7.4.3-16.6 4.9-21.9 11.3-4.8 5.5-8.9 14.4-7.9 22.8zm60.6 74.5c-.2-.2-19.6-7.6-19.8-30-.2-18.7 15.3-27.7 16-28.2-8.8-13-22.4-14.4-27.1-14.7-12.2-.7-22.6 6.9-28.4 6.9-5.9 0-14.7-6.6-24.3-6.4-12.5.2-24.2 7.3-30.5 18.6-13.1 22.6-3.4 56 9.3 74.4 6.2 9.1 13.7 19.1 23.5 18.7 9.3-.4 13-6 24.2-6 11.3 0 14.5 6 24.3 5.9 10.2-.2 16.5-9.1 22.8-18.2 6.9-10.4 9.8-20.4 10-21zm135.4-53.4c0-26.6-18.5-44.8-44.9-44.8h-51.2v136.4h21.2v-46.6h29.3c26.8 0 45.6-18.4 45.6-45zm90 23.7c0-19.7-15.8-32.4-40-32.4-22.5 0-39.1 12.9-39.7 30.5h19.1c1.6-8.4 9.4-13.9 20-13.9 13 0 20.2 6 20.2 17.2v7.5l-26.4 1.6c-24.6 1.5-37.9 11.6-37.9 29.1 0 17.7 13.7 29.4 33.4 29.4 13.3 0 25.6-6.7 31.2-17.4h.4V310h19.6v-68zM516 210.9h-21.5l-24.9 80.6h-.4l-24.9-80.6H422l35.9 99.3-1.9 6c-3.2 10.2-8.5 14.2-17.9 14.2-1.7 0-4.9-.2-6.2-.3v16.4c1.2.4 6.5.5 8.1.5 20.7 0 30.4-7.9 38.9-31.8L516 210.9z"/></symbol><symbol class="svg-inline--fa fa-cc-mastercard fa-w-18" id="sprite-cc-mastercard-brands" viewBox="0 0 576 512"><title>cc-mastercard-brands</title><path fill="currentColor" d="M482.9 410.3c0 6.8-4.6 11.7-11.2 11.7-6.8 0-11.2-5.2-11.2-11.7 0-6.5 4.4-11.7 11.2-11.7 6.6 0 11.2 5.2 11.2 11.7zm-310.8-11.7c-7.1 0-11.2 5.2-11.2 11.7 0 6.5 4.1 11.7 11.2 11.7 6.5 0 10.9-4.9 10.9-11.7-.1-6.5-4.4-11.7-10.9-11.7zm117.5-.3c-5.4 0-8.7 3.5-9.5 8.7h19.1c-.9-5.7-4.4-8.7-9.6-8.7zm107.8.3c-6.8 0-10.9 5.2-10.9 11.7 0 6.5 4.1 11.7 10.9 11.7 6.8 0 11.2-4.9 11.2-11.7 0-6.5-4.4-11.7-11.2-11.7zm105.9 26.1c0 .3.3.5.3 1.1 0 .3-.3.5-.3 1.1-.3.3-.3.5-.5.8-.3.3-.5.5-1.1.5-.3.3-.5.3-1.1.3-.3 0-.5 0-1.1-.3-.3 0-.5-.3-.8-.5-.3-.3-.5-.5-.5-.8-.3-.5-.3-.8-.3-1.1 0-.5 0-.8.3-1.1 0-.5.3-.8.5-1.1.3-.3.5-.3.8-.5.5-.3.8-.3 1.1-.3.5 0 .8 0 1.1.3.5.3.8.3 1.1.5s.2.6.5 1.1zm-2.2 1.4c.5 0 .5-.3.8-.3.3-.3.3-.5.3-.8 0-.3 0-.5-.3-.8-.3 0-.5-.3-1.1-.3h-1.6v3.5h.8V426h.3l1.1 1.4h.8l-1.1-1.3zM576 81v352c0 26.5-21.5 48-48 48H48c-26.5 0-48-21.5-48-48V81c0-26.5 21.5-48 48-48h480c26.5 0 48 21.5 48 48zM64 220.6c0 76.5 62.1 138.5 138.5 138.5 27.2 0 53.9-8.2 76.5-23.1-72.9-59.3-72.4-171.2 0-230.5-22.6-15-49.3-23.1-76.5-23.1-76.4-.1-138.5 62-138.5 138.2zm224 108.8c70.5-55 70.2-162.2 0-217.5-70.2 55.3-70.5 162.6 0 217.5zm-142.3 76.3c0-8.7-5.7-14.4-14.7-14.7-4.6 0-9.5 1.4-12.8 6.5-2.4-4.1-6.5-6.5-12.2-6.5-3.8 0-7.6 1.4-10.6 5.4V392h-8.2v36.7h8.2c0-18.9-2.5-30.2 9-30.2 10.2 0 8.2 10.2 8.2 30.2h7.9c0-18.3-2.5-30.2 9-30.2 10.2 0 8.2 10 8.2 30.2h8.2v-23zm44.9-13.7h-7.9v4.4c-2.7-3.3-6.5-5.4-11.7-5.4-10.3 0-18.2 8.2-18.2 19.3 0 11.2 7.9 19.3 18.2 19.3 5.2 0 9-1.9 11.7-5.4v4.6h7.9V392zm40.5 25.6c0-15-22.9-8.2-22.9-15.2 0-5.7 11.9-4.8 18.5-1.1l3.3-6.5c-9.4-6.1-30.2-6-30.2 8.2 0 14.3 22.9 8.3 22.9 15 0 6.3-13.5 5.8-20.7.8l-3.5 6.3c11.2 7.6 32.6 6 32.6-7.5zm35.4 9.3l-2.2-6.8c-3.8 2.1-12.2 4.4-12.2-4.1v-16.6h13.1V392h-13.1v-11.2h-8.2V392h-7.6v7.3h7.6V416c0 17.6 17.3 14.4 22.6 10.9zm13.3-13.4h27.5c0-16.2-7.4-22.6-17.4-22.6-10.6 0-18.2 7.9-18.2 19.3 0 20.5 22.6 23.9 33.8 14.2l-3.8-6c-7.8 6.4-19.6 5.8-21.9-4.9zm59.1-21.5c-4.6-2-11.6-1.8-15.2 4.4V392h-8.2v36.7h8.2V408c0-11.6 9.5-10.1 12.8-8.4l2.4-7.6zm10.6 18.3c0-11.4 11.6-15.1 20.7-8.4l3.8-6.5c-11.6-9.1-32.7-4.1-32.7 15 0 19.8 22.4 23.8 32.7 15l-3.8-6.5c-9.2 6.5-20.7 2.6-20.7-8.6zm66.7-18.3H408v4.4c-8.3-11-29.9-4.8-29.9 13.9 0 19.2 22.4 24.7 29.9 13.9v4.6h8.2V392zm33.7 0c-2.4-1.2-11-2.9-15.2 4.4V392h-7.9v36.7h7.9V408c0-11 9-10.3 12.8-8.4l2.4-7.6zm40.3-14.9h-7.9v19.3c-8.2-10.9-29.9-5.1-29.9 13.9 0 19.4 22.5 24.6 29.9 13.9v4.6h7.9v-51.7zm7.6-75.1v4.6h.8V302h1.9v-.8h-4.6v.8h1.9zm6.6 123.8c0-.5 0-1.1-.3-1.6-.3-.3-.5-.8-.8-1.1-.3-.3-.8-.5-1.1-.8-.5 0-1.1-.3-1.6-.3-.3 0-.8.3-1.4.3-.5.3-.8.5-1.1.8-.5.3-.8.8-.8 1.1-.3.5-.3 1.1-.3 1.6 0 .3 0 .8.3 1.4 0 .3.3.8.8 1.1.3.3.5.5 1.1.8.5.3 1.1.3 1.4.3.5 0 1.1 0 1.6-.3.3-.3.8-.5 1.1-.8.3-.3.5-.8.8-1.1.3-.6.3-1.1.3-1.4zm3.2-124.7h-1.4l-1.6 3.5-1.6-3.5h-1.4v5.4h.8v-4.1l1.6 3.5h1.1l1.4-3.5v4.1h1.1v-5.4zm4.4-80.5c0-76.2-62.1-138.3-138.5-138.3-27.2 0-53.9 8.2-76.5 23.1 72.1 59.3 73.2 171.5 0 230.5 22.6 15 49.5 23.1 76.5 23.1 76.4.1 138.5-61.9 138.5-138.4z"/></symbol><symbol class="svg-inline--fa fa-cc-paypal fa-w-18" id="sprite-cc-paypal-brands" viewBox="0 0 576 512"><title>cc-paypal-brands</title><path fill="currentColor" d="M186.3 258.2c0 12.2-9.7 21.5-22 21.5-9.2 0-16-5.2-16-15 0-12.2 9.5-22 21.7-22 9.3 0 16.3 5.7 16.3 15.5zM80.5 209.7h-4.7c-1.5 0-3 1-3.2 2.7l-4.3 26.7 8.2-.3c11 0 19.5-1.5 21.5-14.2 2.3-13.4-6.2-14.9-17.5-14.9zm284 0H360c-1.8 0-3 1-3.2 2.7l-4.2 26.7 8-.3c13 0 22-3 22-18-.1-10.6-9.6-11.1-18.1-11.1zM576 80v352c0 26.5-21.5 48-48 48H48c-26.5 0-48-21.5-48-48V80c0-26.5 21.5-48 48-48h480c26.5 0 48 21.5 48 48zM128.3 215.4c0-21-16.2-28-34.7-28h-40c-2.5 0-5 2-5.2 4.7L32 294.2c-.3 2 1.2 4 3.2 4h19c2.7 0 5.2-2.9 5.5-5.7l4.5-26.6c1-7.2 13.2-4.7 18-4.7 28.6 0 46.1-17 46.1-45.8zm84.2 8.8h-19c-3.8 0-4 5.5-4.2 8.2-5.8-8.5-14.2-10-23.7-10-24.5 0-43.2 21.5-43.2 45.2 0 19.5 12.2 32.2 31.7 32.2 9 0 20.2-4.9 26.5-11.9-.5 1.5-1 4.7-1 6.2 0 2.3 1 4 3.2 4H200c2.7 0 5-2.9 5.5-5.7l10.2-64.3c.3-1.9-1.2-3.9-3.2-3.9zm40.5 97.9l63.7-92.6c.5-.5.5-1 .5-1.7 0-1.7-1.5-3.5-3.2-3.5h-19.2c-1.7 0-3.5 1-4.5 2.5l-26.5 39-11-37.5c-.8-2.2-3-4-5.5-4h-18.7c-1.7 0-3.2 1.8-3.2 3.5 0 1.2 19.5 56.8 21.2 62.1-2.7 3.8-20.5 28.6-20.5 31.6 0 1.8 1.5 3.2 3.2 3.2h19.2c1.8-.1 3.5-1.1 4.5-2.6zm159.3-106.7c0-21-16.2-28-34.7-28h-39.7c-2.7 0-5.2 2-5.5 4.7l-16.2 102c-.2 2 1.3 4 3.2 4h20.5c2 0 3.5-1.5 4-3.2l4.5-29c1-7.2 13.2-4.7 18-4.7 28.4 0 45.9-17 45.9-45.8zm84.2 8.8h-19c-3.8 0-4 5.5-4.3 8.2-5.5-8.5-14-10-23.7-10-24.5 0-43.2 21.5-43.2 45.2 0 19.5 12.2 32.2 31.7 32.2 9.3 0 20.5-4.9 26.5-11.9-.3 1.5-1 4.7-1 6.2 0 2.3 1 4 3.2 4H484c2.7 0 5-2.9 5.5-5.7l10.2-64.3c.3-1.9-1.2-3.9-3.2-3.9zm47.5-33.3c0-2-1.5-3.5-3.2-3.5h-18.5c-1.5 0-3 1.2-3.2 2.7l-16.2 104-.3.5c0 1.8 1.5 3.5 3.5 3.5h16.5c2.5 0 5-2.9 5.2-5.7L544 191.2v-.3zm-90 51.8c-12.2 0-21.7 9.7-21.7 22 0 9.7 7 15 16.2 15 12 0 21.7-9.2 21.7-21.5.1-9.8-6.9-15.5-16.2-15.5z"/></symbol><symbol class="svg-inline--fa fa-cc-visa fa-w-18" id="sprite-cc-visa-brands" viewBox="0 0 576 512"><title>cc-visa-brands</title><path fill="currentColor" d="M470.1 231.3s7.6 37.2 9.3 45H446c3.3-8.9 16-43.5 16-43.5-.2.3 3.3-9.1 5.3-14.9l2.8 13.4zM576 80v352c0 26.5-21.5 48-48 48H48c-26.5 0-48-21.5-48-48V80c0-26.5 21.5-48 48-48h480c26.5 0 48 21.5 48 48zM152.5 331.2L215.7 176h-42.5l-39.3 106-4.3-21.5-14-71.4c-2.3-9.9-9.4-12.7-18.2-13.1H32.7l-.7 3.1c15.8 4 29.9 9.8 42.2 17.1l35.8 135h42.5zm94.4.2L272.1 176h-40.2l-25.1 155.4h40.1zm139.9-50.8c.2-17.7-10.6-31.2-33.7-42.3-14.1-7.1-22.7-11.9-22.7-19.2.2-6.6 7.3-13.4 23.1-13.4 13.1-.3 22.7 2.8 29.9 5.9l3.6 1.7 5.5-33.6c-7.9-3.1-20.5-6.6-36-6.6-39.7 0-67.6 21.2-67.8 51.4-.3 22.3 20 34.7 35.2 42.2 15.5 7.6 20.8 12.6 20.8 19.3-.2 10.4-12.6 15.2-24.1 15.2-16 0-24.6-2.5-37.7-8.3l-5.3-2.5-5.6 34.9c9.4 4.3 26.8 8.1 44.8 8.3 42.2.1 69.7-20.8 70-53zM528 331.4L495.6 176h-31.1c-9.6 0-16.9 2.8-21 12.9l-59.7 142.5H426s6.9-19.2 8.4-23.3H486c1.2 5.5 4.8 23.3 4.8 23.3H528z"/></symbol><symbol id="sprite-divider-1" viewBox="0 0 681 126"><title>divider-1</title><path d="M318.031 107.85C308.423 98.034 299.845 90 298.968 90c-.877 0-2.869 1.33-4.427 2.957-3.556 3.712-4.626 3.237-13.595-6.04l-6.555-6.78-4.34 3.434c-5.024 3.976-3.624 4.629-15.714-7.321L245.99 68H121.067L116 63.5c-5.348-4.75-7-5.458-7-3 0 .825-.675 1.5-1.5 1.5s-1.5.405-1.5.901 1.571.857 3.491.802c3.607-.102 6.04 1.684 8.463 6.212 1.08 2.016.888 2.643-1.614 5.273-4.495 4.723-6.015 5.213-8.97 2.889l-2.573-2.024-3.4 2.594c-3.96 3.02-3.065 3.49-14.04-7.397-4.02-3.987-7.811-7.25-8.425-7.25-.614 0-2.26.9-3.66 2-2.4 1.889-4.056 2-29.753 2C16.539 68 0 67.226 0 65.87c0-1.55 4.45-1.859 37.695-2.615l33.196-.755 3.352-3.25c1.844-1.787 4.027-3.25 4.85-3.25.825 0 4.338 3.17 7.807 7.045 6.942 7.754 10.438 10.482 12.11 9.449.763-.472.624-1.404-.456-3.051C97.7 68.138 97 66.479 97 65.756 97 63.977 109.185 52 110.995 52c.793 0 3.834 2.362 6.757 5.25l5.316 5.25 63.443.5 63.443.5 8.079 8c7.69 7.615 8.148 7.907 9.523 6.059.794-1.068 1.444-2.209 1.444-2.535 0-.327-3.362-3.837-7.472-7.8-5.458-5.264-7.309-7.68-6.866-8.965.82-2.38 25.492-27.259 27.031-27.259.672 0 3.728 2.566 6.79 5.703l5.567 5.702-7.525 7.57C282.386 54.138 279 58.08 279 58.737c0 .656.96 1.706 2.131 2.333 1.942 1.04 3.364-.089 16-12.701C304.76 40.756 311 33.817 311 32.95c0-.866-1.368-2.886-3.04-4.488-1.672-1.602-2.91-3.692-2.75-4.645.16-.953 5.194-6.702 11.187-12.775C327.227.068 327.324 0 332.04 0c3.296 0 4.922.458 5.322 1.5.747 1.947 5.53 1.947 6.276 0 .4-1.042 2.026-1.5 5.322-1.5 4.716 0 4.813.068 15.643 11.042 5.993 6.073 11.027 11.822 11.187 12.775.16.953-1.078 3.043-2.75 4.645-1.672 1.602-3.04 3.622-3.04 4.488 0 .867 6.24 7.806 13.869 15.419 12.636 12.612 14.058 13.74 16 12.701 1.172-.627 2.131-1.7 2.131-2.382 0-.683-3.15-4.367-7-8.188-3.85-3.82-7-7.46-7-8.087C388 40.876 397.795 31 399.32 31c1.53 0 26.203 24.892 27.018 27.259.443 1.284-1.408 3.7-6.866 8.965-4.11 3.963-7.472 7.473-7.472 7.8 0 .327.65 1.467 1.444 2.535 1.375 1.848 1.833 1.556 9.523-6.059l8.079-8 63.443-.5 63.443-.5 5.315-5.25c2.924-2.888 5.99-5.25 6.813-5.25C571.863 52 584 64.026 584 65.812c0 .692-.7 2.326-1.554 3.63-1.08 1.648-1.22 2.58-.456 3.052 1.671 1.033 5.168-1.695 12.11-9.45 3.47-3.874 6.982-7.044 7.806-7.044.824 0 3.007 1.463 4.851 3.25l3.352 3.25 33.196.755C676.55 64.01 681 64.32 681 65.869 681 67.226 664.461 68 635.481 68c-25.697 0-27.353-.111-29.754-2-1.398-1.1-3.045-2-3.659-2-.614 0-4.405 3.263-8.425 7.25-10.975 10.888-10.08 10.416-14.04 7.397l-3.4-2.594-2.573 2.024c-2.955 2.324-4.475 1.834-8.97-2.89-2.446-2.57-2.678-3.285-1.674-5.161 2.255-4.213 5.289-6.415 8.707-6.318 1.819.052 3.307-.312 3.307-.807 0-.496-.675-.901-1.5-.901s-1.5-.675-1.5-1.5c0-2.458-1.652-1.75-7 3l-5.067 4.5h-125l-8.257 8.25c-11.896 11.884-10.684 11.312-15.644 7.387l-4.257-3.368-7.138 7.195c-3.925 3.958-7.873 7.464-8.772 7.79-1.036.377-2.662-.476-4.437-2.33-1.541-1.608-3.522-2.924-4.402-2.924-.88 0-9.654 8.1-19.498 18l-17.9 18-4.564-.15c-4.54-.147-4.652-.239-22.033-18zm40.846-4.9C368.294 93.57 376 85.272 376 84.507c0-2.51-1.692-2.506-4.62.012-1.584 1.362-3.291 2.477-3.794 2.478-.503 0-6.6-5.624-13.547-12.499C347.09 67.624 340.97 62 340.438 62c-.533 0-6.58 5.625-13.438 12.5-6.858 6.875-12.978 12.5-13.599 12.5-.62 0-2.293-1.165-3.717-2.588-2.549-2.55-4.684-2.544-4.684.011 0 1.69 33.785 35.577 35.471 35.577.705 0 8.988-7.673 18.406-17.05zm-29.017-.637C324.437 96.985 320 92.24 320 91.77 320 90.398 339.858 71 341.263 71 343.217 71 361 89.295 361 91.305 361 93.444 343.218 112 341.169 112c-.797 0-5.886-4.36-11.31-9.687zM354 91.705C354 90.063 342.68 79 341 79c-1.717 0-13 11.08-13 12.767 0 .504 2.957 3.755 6.57 7.226l6.571 6.31 6.43-6.373c3.536-3.505 6.429-6.756 6.429-7.225zm-60.57-6.385c.875-2.28-9.14-12.51-11.852-12.106-3.458.515-2.813 2.658 2.49 8.265 5.338 5.643 8.218 6.825 9.363 3.84zm103.501-3.84c5.251-5.553 5.921-7.686 2.615-8.327-2.606-.505-12.46 9.46-11.81 11.945.853 3.262 3.776 2.111 9.195-3.619zm-95.47-3.417c.319-.515-1.23-2.838-3.441-5.163-2.211-2.324-4.02-4.949-4.02-5.833 0-.883 4.248-5.837 9.44-11.008 10.66-10.615 9.161-10.457 17.81-1.881 2.612 2.59 4.75 5.265 4.75 5.944 0 .679-3.445 4.774-7.655 9.1-5.337 5.485-7.338 8.185-6.608 8.915.712.712 1.645.725 2.906.042C317.49 76.637 335 58.437 335 57.019c0-1.436-14.557-16.692-17.381-18.216-1.615-.87-3.846.946-15.75 12.828C294.24 59.244 288 66.247 288 67.194c0 .946 2.137 3.944 4.75 6.66 4.581 4.765 7.497 6.174 8.711 4.209zm68.06-.096c.35-.568-2.773-4.538-6.942-8.822-4.168-4.284-7.579-8.268-7.579-8.853 0-.586 2.137-3.272 4.75-5.97 8.491-8.77 7.125-8.902 17.809 1.737 5.193 5.17 9.441 10.161 9.441 11.09 0 .928-1.802 3.564-4.005 5.856-3.88 4.04-4.365 5.995-1.484 5.995C383.504 79 393 69.237 393 67.189c0-.944-6.24-7.945-13.869-15.558-11.904-11.882-14.135-13.698-15.75-12.828C360.487 40.364 346 55.6 346 57.083 346 58.688 366.15 79 367.743 79c.627 0 1.426-.465 1.777-1.033zM312.854 66.56c2.83-2.992 5.145-5.77 5.145-6.172 0-1.328-3.285-4.388-4.711-4.388C311.353 56 302 65.37 302 67.31c0 1.428 3.53 4.69 5.077 4.69.348 0 2.948-2.448 5.778-5.44zm63.922 3.883C378 69.587 379 68.177 379 67.31c0-1.84-9.307-11.31-11.115-11.31-1.475 0-4.885 2.942-4.885 4.215C363 61.25 372.963 72 373.923 72c.347 0 1.632-.7 2.854-1.557zM276.303 67.05c-.27-1.033-1.574-2.895-2.897-4.138-3.807-3.576-3.045-5.831 4.51-13.327 6.675-6.625 7.76-9.115 4.264-9.788-1.69-.325-18.276 15.404-19.438 18.434-.417 1.087 1.277 3.391 5.353 7.279 4.704 4.486 6.252 5.448 7.33 4.553.753-.625 1.148-1.98.878-3.013zm136.705-1.639c3.964-3.78 5.665-6.099 5.256-7.164-1.18-3.075-17.734-18.81-19.429-18.468-3.505.707-2.439 3.169 4.25 9.806 7.414 7.357 8.328 9.835 4.797 13.01-2.762 2.485-3.908 5.587-2.644 7.156.554.687 1.21 1.25 1.459 1.25.248 0 3.088-2.515 6.311-5.59zM350.9 42.6l9.36-9.4-8.772-9.1c-5.869-6.087-9.506-9.1-10.988-9.1-1.482 0-5.12 3.013-10.988 9.1l-8.773 9.1 9.361 9.4c5.148 5.17 9.828 9.4 10.4 9.4.572 0 5.252-4.23 10.4-9.4zm-15.943-3.237c-2.726-2.55-4.957-5.242-4.957-5.982 0-1.658 7.84-9.824 10.272-10.698 2.023-.728 8.43 4.525 10.706 8.775 1.331 2.488 1.182 2.811-3.506 7.57-2.693 2.735-5.496 4.972-6.227 4.972-.732 0-3.561-2.087-6.288-4.637zm8.549-4.372c.342-.555.33-1.931-.027-3.058-.82-2.585-4.802-2.25-5.317.447-.54 2.835 3.873 4.99 5.344 2.61zm-17.337-15.712c9.235-9.036 10.821-12.425 6.13-13.092-1.634-.233-4.4 1.872-10.75 8.178-4.702 4.67-8.549 9.11-8.549 9.864 0 1.565 1.947 3.77 3.329 3.77.51 0 4.939-3.923 9.84-8.72zM366.8 26.8c2.226-2.225 1.227-3.914-7.35-12.434-6.349-6.306-9.115-8.41-10.75-8.178-4.69.667-3.104 4.056 6.13 13.092 4.902 4.797 9.33 8.72 9.841 8.72.511 0 1.469-.54 2.129-1.2z"/></symbol><symbol id="sprite-divider-2" viewBox="0 0 652.184 72.12"><title>divider-2</title><path d="M288.136 60.545L277.228 49.01l-4.13 4.054c-4.905 4.814-8.058 5.184-12.478 1.465-2.245-1.89-3.075-3.443-3.07-5.75.007-3.21 2.365-7.685 5.232-9.927 1.989-1.556.631-5.735-1.863-5.735-.929 0-5.174 3.713-9.433 8.25l-7.745 8.25-27.849.218c-42.676.334-80.924.286-101.349-.127-59.389-1.199-100.175-2.195-106.5-2.601l-4-.257 5-.726c5.167-.75 74.179-1.32 174.769-1.44l57.768-.07 2.382-2.498c1.31-1.374 4.752-5.096 7.649-8.271 6.247-6.849 8.342-7.599 13.207-4.728 4.375 2.582 5.173 2.24 12.691-5.426 6.184-6.305 8.185-6.768 13.543-3.132L294.65 23l5.197-5.498C316.346.048 316.266.117 320.048.117c2.62 0 4.191.697 5.81 2.58l2.22 2.58 2.784-2.58c4.972-4.608 7.68-3.682 16.586 5.67 4.32 4.537 9.07 9.705 10.552 11.484l2.695 3.235 3.656-2.485c6.26-4.253 8.865-3.364 16.826 5.738 4.82 5.51 6.348 6.003 9.87 3.186 1.648-1.32 3.755-2.4 4.682-2.403.927-.003 5.77 4.022 10.763 8.944l9.078 8.95 62.237.001c72.083.003 173.79.82 174.37 1.4.58.58-40.598 1.806-58.134 1.73-8.25-.034-21.75.258-30 .653-8.25.394-45.607.74-83.017.767l-68.018.05-8.041-8.25c-4.424-4.538-8.818-8.25-9.765-8.25-.948 0-2.099 1.012-2.558 2.25-.674 1.818-.188 2.916 2.532 5.72 4.43 4.566 4.578 8.973.444 13.107-4.175 4.176-7.534 3.872-12.643-1.143l-4.143-4.065-9.895 10.12c-5.443 5.565-10.041 10.77-10.219 11.565-.213.955-1.632 1.446-4.18 1.446-4.112 0-3.314.684-19.823-17-7.539-8.076-7.293-10.052 2.5-20.115 8.08-8.304 10.7-9.43 14.768-6.353 2.728 2.064 4.366 1.826 4.739-.687.235-1.587-2.214-4.782-9.276-12.103-9.758-10.116-11.922-11.257-14.273-7.523-.877 1.393-.462 2.361 2.19 5.096 2.528 2.609 3.31 4.322 3.438 7.534.15 3.784-.324 4.653-5.284 9.676l-5.45 5.518-5.493-5.626c-4.869-4.986-5.481-6.076-5.39-9.585.075-2.85.863-4.75 2.815-6.787 3.014-3.147 3.18-7.308.314-7.854-1.932-.368-20.323 17.984-21.135 21.092-.674 2.576 1.633 3.146 5.224 1.29 1.672-.866 3.885-1.573 4.917-1.573 1.031 0 5.329 3.548 9.55 7.885 10.059 10.337 10.16 11.835 1.423 21.037-3.438 3.62-8.172 8.72-10.521 11.33-3.434 3.818-4.903 4.744-7.5 4.73-2.814-.015-4.634-1.502-14.137-11.553zm76.692-4.023c11.324-11.683 11.334-11.748 2.877-19.657-5.426-5.076-6.321-5.466-7.976-3.472-.78.939-.281 2.437 1.877 5.65 4.188 6.236 3.69 10.033-1.94 14.787-4.338 3.663-9.435 2.394-13.176-3.281-2.72-4.125-2.42-7.562 1.039-11.914 1.642-2.066 2.74-4.153 2.44-4.638-1.358-2.198-4.665-.38-10.335 5.682l-6.138 6.562 1.924 2.688c1.059 1.478 4.48 5.12 7.603 8.093 3.123 2.973 6.384 6.483 7.247 7.8.863 1.317 2.29 2.26 3.171 2.095.881-.166 6.005-4.843 11.387-10.395zm-54.18 2.844c7.225-7.511 10.895-12.045 10.895-13.459 0-1.756-11.295-12.79-13.093-12.79-3.026 0-2.996 1.576.112 5.866 4.053 5.596 3.857 8.494-.9 13.251-5.74 5.74-10.438 4.956-15.052-2.51-2.372-3.839-1.978-5.793 2.329-11.527 2.754-3.667 2.143-6.296-1.257-5.407-2.239.586-12.138 10.745-12.138 12.458 0 2.323 18.69 20.868 21.03 20.868.87 0 4.503-3.037 8.074-6.75zm-40.76-10.531c3.232-2.778 3.331-4.132.449-6.15-2.06-1.444-2.393-1.369-5 1.13-5.825 5.58-1.567 10.277 4.55 5.02zm34.51-.063c2.466-2.626 2.063-5.085-1.28-7.796-1.893-1.536-2.165-1.504-4.28.5-2.732 2.587-2.84 4.014-.545 7.17 2.207 3.035 3.349 3.059 6.104.126zm53.317.69c2.467-2.233 2.276-5.39-.485-8.004-2.147-2.034-2.4-2.063-4.404-.5-2.848 2.221-3.203 5.478-.878 8.05 2.297 2.542 3.367 2.625 5.767.453zm35.618-.87c.173-1.206-.898-3.164-2.648-4.84-2.488-2.384-3.26-2.643-5.04-1.69-2.714 1.453-2.665 3.671.148 6.675 2.77 2.956 7.108 2.873 7.54-.145zm-108.65-14.976c2.65-2.75 4.827-5.492 4.839-6.095.012-.602-.85-1.884-1.916-2.848-1.869-1.691-2.111-1.591-6.808 2.802-2.68 2.506-5.481 5.696-6.227 7.09-1.19 2.223-1.133 2.777.46 4.538 2.1 2.32 2.17 2.28 9.652-5.487zm97.872 2.522c-.522-.976-3.385-4.35-6.361-7.497-4.822-5.099-5.643-5.599-7.531-4.588-3.368 1.802-2.521 4.13 3.932 10.808 5.922 6.13 6.079 6.216 8.472 4.648 1.898-1.243 2.227-1.99 1.488-3.37zm-49.456-13.13c1.543-2.983 1.51-3.113-1.56-6.046-2.88-2.753-3.313-2.88-5.316-1.556-1.199.792-2.603 2.624-3.121 4.07-.797 2.227-.506 3.086 1.896 5.593 3.319 3.464 5.536 2.9 8.101-2.06zM.293 46.454c.688-.277 1.813-.277 2.5 0 .688.278.125.505-1.25.505s-1.937-.228-1.25-.505z" opacity=".97"/></symbol><symbol class="svg-inline--fa fa-facebook-f fa-w-10" id="sprite-facebook-f-brands" viewBox="0 0 320 512"><title>facebook-f-brands</title><path fill="currentColor" d="M279.14 288l14.22-92.66h-88.91v-60.13c0-25.35 12.42-50.06 52.24-50.06h40.42V6.26S260.43 0 225.36 0c-73.22 0-121.08 44.38-121.08 124.72v70.62H22.89V288h81.39v224h100.17V288z"/></symbol><symbol class="svg-inline--fa fa-instagram fa-w-14" id="sprite-instagram-brands" viewBox="0 0 448 512"><title>instagram-brands</title><path fill="currentColor" d="M224.1 141c-63.6 0-114.9 51.3-114.9 114.9s51.3 114.9 114.9 114.9S339 319.5 339 255.9 287.7 141 224.1 141zm0 189.6c-41.1 0-74.7-33.5-74.7-74.7s33.5-74.7 74.7-74.7 74.7 33.5 74.7 74.7-33.6 74.7-74.7 74.7zm146.4-194.3c0 14.9-12 26.8-26.8 26.8-14.9 0-26.8-12-26.8-26.8s12-26.8 26.8-26.8 26.8 12 26.8 26.8zm76.1 27.2c-1.7-35.9-9.9-67.7-36.2-93.9-26.2-26.2-58-34.4-93.9-36.2-37-2.1-147.9-2.1-184.9 0-35.8 1.7-67.6 9.9-93.9 36.1s-34.4 58-36.2 93.9c-2.1 37-2.1 147.9 0 184.9 1.7 35.9 9.9 67.7 36.2 93.9s58 34.4 93.9 36.2c37 2.1 147.9 2.1 184.9 0 35.9-1.7 67.7-9.9 93.9-36.2 26.2-26.2 34.4-58 36.2-93.9 2.1-37 2.1-147.8 0-184.8zM398.8 388c-7.8 19.6-22.9 34.7-42.6 42.6-29.5 11.7-99.5 9-132.1 9s-102.7 2.6-132.1-9c-19.6-7.8-34.7-22.9-42.6-42.6-11.7-29.5-9-99.5-9-132.1s-2.6-102.7 9-132.1c7.8-19.6 22.9-34.7 42.6-42.6 29.5-11.7 99.5-9 132.1-9s102.7-2.6 132.1 9c19.6 7.8 34.7 22.9 42.6 42.6 11.7 29.5 9 99.5 9 132.1s2.7 102.7-9 132.1z"/></symbol><symbol id="sprite-logo" viewBox="0 0 196.348 116.02"><title>logo</title><path d="M78.4 112.426c-.804-1.925-1.906-3.5-2.449-3.5-1.442 0-1.207 4.744.264 5.337.687.278-.043.54-1.623.584-2.177.06-2.627-.223-1.857-1.171 1.393-1.716 1.98-10.637.737-11.208-.554-.255.793-.368 2.993-.253 3.34.176 4.054.591 4.327 2.516.18 1.268-.195 2.933-.833 3.702-1.246 1.5-.466 5.493 1.073 5.493.513 0 .933.45.933 1 0 2.295-2.208.747-3.565-2.5zm1.065-7c0-2.655-3.096-3.154-3.762-.607-.618 2.363.092 3.286 2.213 2.878.852-.164 1.549-1.186 1.549-2.271zm5.5 4.5c.315-3.3.22-6-.213-6s-.787-.372-.787-.827c0-1.403 6.425-.056 7.75 1.624 1.745 2.213 1.56 7.75-.322 9.631-.864.865-2.793 1.572-4.286 1.572H84.39zm6.283 1.652c1.096-3.29-.414-7.652-2.648-7.652-1.534 0-3.248 8.198-2.103 10.052 1.152 1.863 3.772.54 4.751-2.4zm5.217-2.198v-6.545l3.5.295c3.007.254 3.545.692 3.822 3.105.27 2.349-.182 3-2.75 3.97-3.367 1.27-4.16 4.29-1.322 5.031 1.186.31.945.495-.75.574-2.424.112-2.5-.084-2.5-6.43zm6-2.954c0-1.313-.773-2.11-2.25-2.32-1.846-.262-2.25.155-2.25 2.32s.404 2.581 2.25 2.32c1.477-.21 2.25-1.008 2.25-2.32zm5.35 3.872c.245-3.937-.056-5.901-1-6.53-.886-.59.025-.803 2.65-.62l4 .278v4.83c0 3.626.484 5.183 1.941 6.25 1.424 1.041 1.548 1.42.466 1.42-.812 0-2.273-1.35-3.248-3-.975-1.65-2.197-3-2.716-3-1.411 0-1.138 4.754.307 5.337.687.278.35.541-.75.585-1.812.073-1.967-.449-1.65-5.55zm4.046-2.287c1.724-1.092.725-4.085-1.365-4.085-.967 0-1.531.921-1.531 2.5 0 2.656.646 3.01 2.896 1.585zm6.104 7.123c0-.573.492-1.206 1.094-1.406 1.313-.438.159-9.802-1.208-9.802-.487 0-.886-.45-.886-1s2.025-1 4.5-1c3.649 0 4.485.33 4.421 1.75-.047 1.045-.282 1.247-.583.5-.278-.688-1.592-1.25-2.921-1.25-1.75 0-2.417.551-2.417 2 0 2.188 2.528 2.756 3.338.75.277-.688.54-.027.583 1.468.059 2.023-.305 2.572-1.421 2.143-1.097-.42-1.5.125-1.5 2.032 0 2.094.478 2.607 2.43 2.607 1.726 0 2.557-.653 2.864-2.25.372-1.93.453-1.858.57.5.086 1.732-.373 2.75-1.24 2.75-.755 0-2.78.281-4.5.625-1.9.38-3.124.216-3.124-.417zm12.726-2.862c-.439-2.294-.368-2.332 1.387-.744 1.473 1.333 2.147 1.427 3.309.463 2.016-1.674.974-3.731-2.502-4.943-2.153-.75-2.92-1.66-2.92-3.463 0-3.574 5.192-5.206 6.416-2.016.929 2.42-.23 2.995-1.775.881-.736-1.006-1.856-1.51-2.49-1.118-2.18 1.348-1.143 3.57 2.349 5.03 5.211 2.177 4.586 6.4-1.156 7.801-1.687.412-2.257 0-2.618-1.891zm-67.73.149c-1.833-2.208-1.665-6.826.36-9.916 2.15-3.28 4.144-3.272 6.304.025 1.536 2.344 1.563 3.018.273 6.75-1.576 4.56-4.617 5.937-6.937 3.14zm4.969-1.43c1.474-2.754 1.28-7.617-.36-8.977-3.273-2.718-6.535 6.582-3.405 9.712 1.677 1.677 2.567 1.503 3.765-.735zm-16.757-5.814c.185-4.605.71-7.249 1.437-7.25.81 0 .89 1.092.273 3.749-1.323 5.699-1.02 7.076.828 3.75l1.665-3 .615 3 .615 3 1.142-3.906c.628-2.149.907-4.286.62-4.75-.286-.465.229-.844 1.145-.844.921 0 1.452.559 1.188 1.25-.264.687-1.317 3.612-2.342 6.5-2.048 5.769-3.39 6.756-3.4 2.5l-.008-2.75-2.035 3-2.036 3 .292-7.249zm90.792 4.621c0-2.074.102-2.114 1.276-.509.8 1.094 1.92 1.499 3 1.084 2.796-1.073 1.981-3.313-1.776-4.883-2.213-.924-3.5-2.143-3.5-3.313 0-4.028 5.327-5.934 6.29-2.251.602 2.303-.792 2.74-1.645.517-.683-1.78-3.645-.906-3.645 1.076 0 .76 1.606 2.05 3.568 2.871 3.035 1.268 3.521 1.906 3.25 4.263-.266 2.317-.853 2.824-3.568 3.086-2.798.27-3.25 0-3.25-1.941zM38.462 101.32c-8.929-3.12-19.96-8.264-19.248-8.977.302-.302 3.182.76 6.4 2.36 3.218 1.6 9 3.971 12.85 5.27 7.651 2.582 8.032 2.755 7.415 3.372-.231.231-3.569-.68-7.417-2.025zm114.503 2.177c0-.236 2.587-1.178 5.75-2.094 3.162-.915 9.084-3.2 13.158-5.079 8.595-3.961 10.841-3.825 2.941.179-8.391 4.253-21.85 8.56-21.85 6.994zM.715 81.263c.924-.372 1.25-4.508 1.25-15.847 0-13.772-.18-15.39-1.75-15.8-.963-.252 1.4-.504 5.25-.559 4.375-.063 6.48.23 5.612.779-1.355.857-1.547 4.887-1.207 25.34l.095 5.75h5c4.55 0 5-.207 5-2.3 0-2.275 1.651-4.7 3.2-4.7.44 0 .8 1.623.8 3.607 0 2.878.32 3.484 1.582 3 .87-.334 1.713-.607 1.873-.607.16 0 3.134-6.975 6.609-15.5s6.633-15.5 7.018-15.5c.385 0 3.045 5.737 5.912 12.75 8.452 20.676 8.182 20.27 12.424 18.643 1.34-.515 1.582-2.794 1.582-14.95 0-12.606-.212-14.467-1.75-15.363-1.374-.8-.763-1.026 2.845-1.05 5.622-.037 6.33.672 12.465 12.494 2.562 4.937 4.993 9.338 5.403 9.78.41.442 2.457-3.76 4.549-9.337 2.092-5.577 4.44-10.776 5.217-11.554.78-.78 3.287-1.4 5.592-1.383 3.325.024 3.821.239 2.429 1.05-1.539.896-1.75 2.76-1.75 15.42s.211 14.524 1.75 15.42c1.312.764.012 1.027-5.191 1.05-5.827.025-6.664-.173-5.216-1.232 1.496-1.094 1.687-2.844 1.44-13.222l-.283-11.962-5.376 13.223c-2.957 7.272-5.657 13.222-6 13.22-.343 0-3.55-5.619-7.124-12.484-3.575-6.865-6.78-12.489-7.12-12.497-.341-.01-.6 5.046-.574 11.234.043 10.3.222 11.352 2.12 12.464 1.75 1.025.795 1.22-6.094 1.25-4.493.02-8.924-.254-9.848-.609-.923-.354-2.52-2.604-3.546-5l-1.867-4.355h-5.429c-5.334 0-5.454.064-6.915 3.727-1.343 3.367-1.329 3.848.143 4.969 1.317 1.002-1.535 1.231-14.87 1.193-9.075-.026-15.938-.274-15.25-.552zm41.25-11.254c0-.505-.939-3.092-2.085-5.75l-2.086-4.833-1.787 3.5c-.984 1.925-2.1 4.512-2.482 5.75-.65 2.106-.403 2.25 3.873 2.25 2.512 0 4.567-.413 4.567-.917zm63.75 11.254c.924-.372 1.25-4.506 1.25-15.837 0-11.312-.328-15.475-1.25-15.874-.688-.297 2.8-.495 7.75-.44 10.142.112 15.219 1.846 16.14 5.514 1.041 4.151-.395 6.985-4.381 8.638-2.137.886-2.963 1.581-1.913 1.61 3.197.09 7.557 3.334 8.158 6.072.318 1.448.113 3.857-.456 5.354-1.553 4.085-6.393 5.64-17.266 5.547-5.105-.044-8.72-.306-8.032-.584zm17.018-1.772c.287-.287.72-2.669.964-5.293.54-5.82-2.19-9.587-6.575-9.08-1.461.17-2.545.645-2.407 1.058.137.412.25 3.959.25 7.88v7.131l3.624-.588c1.993-.323 3.858-.822 4.144-1.108zm-1.852-18.186c3.153-4.008.515-11.38-4.071-11.38-1.618 0-1.845.863-1.845 7 0 6.246.208 7 1.927 7 1.06 0 2.855-1.179 3.99-2.62zm15.834 20.024c.92-.42 1.25-4.607 1.25-15.903 0-11.312-.328-15.476-1.25-15.875-.688-.298 2.575-.5 7.25-.45 10.845.117 15.331 2.139 18.053 8.133 3.657 8.054 1.82 17.51-4.237 21.823-2.735 1.947-4.682 2.339-12.772 2.57-5.25.149-8.982.015-8.294-.298zm15.027-2.153c2.665-2.335 4.223-7.406 4.223-13.75 0-9.214-3.39-15.498-8.36-15.502-2.107-.001-2.136.236-1.841 15.5.275 14.278.444 15.502 2.139 15.502 1.012 0 2.74-.788 3.839-1.75zm13.81 1.602c1.886-.915 5.728-9.092 12.968-27.602 1.77-4.526 3.123-5.347 4.121-2.5.699 1.993 7.57 18.784 10.087 24.646.92 2.143 2.282 4.506 3.026 5.25 1.138 1.138.775 1.354-2.283 1.354-5.066 0-7.013-1.31-8.878-5.971-1.602-4.003-1.646-4.03-6.968-4.03-5.298 0-5.373.043-6.889 3.901-1.472 3.747-1.448 3.942.598 4.933 1.767.855 1.277 1.031-2.87 1.031-4.081 0-4.616-.185-2.912-1.012zm16.413-10.77c0-.504-.939-3.091-2.085-5.75l-2.086-4.832-1.787 3.5c-.984 1.925-2.1 4.512-2.482 5.75-.65 2.106-.403 2.25 3.873 2.25 2.512 0 4.567-.413 4.567-.917zM64.572 43.345c-.334-.87-.607-2.67-.607-4 0-2.457-1.376-3.237-2.5-1.418-1.008 1.63-5.063 1.14-6.845-.829-4.013-4.435-.738-10.226 5.648-9.986 3.01.113 3.711.526 3.773 2.227.043 1.148.21 2.763.374 3.588.163.825.62 3.862 1.017 6.75.709 5.166.332 6.774-.86 3.668zm-3.179-6.99c.865-.864 1.572-2.407 1.572-3.428 0-2.177-2.55-5-4.515-5-1.336 0-4.485 3.666-4.485 5.222 0 1.09 3.804 4.778 4.928 4.778.511 0 1.636-.707 2.5-1.572zm71.069 4.987l2.734-3.584-1.595-5.604c-.876-3.082-1.39-5.806-1.143-6.054.547-.546 2.507 4.406 2.507 6.333 0 2.89 1.89 2.346 3.943-1.134 1.176-1.993 2.353-3.41 2.615-3.148.977.977-9.448 16.776-11.07 16.776-.4 0 .505-1.613 2.009-3.585zM71.41 34.564c-.326-1.299-.406-3.886-.179-5.75.39-3.2.423-3.158.574.74.203 5.243 2.68 7.749 4.797 4.853.782-1.068 1.964-3.751 2.629-5.962l1.207-4.02.645 3c1.022 4.751.97 8.5-.118 8.5-.55 0-1.014-1.012-1.03-2.25-.03-2.187-.062-2.194-1.165-.25-2.364 4.17-6.44 4.8-7.36 1.14zm51.894-2.339c.318-4.628.127-5.245-1.74-5.613-1.992-.393-1.984-.42.15-.55 1.814-.11 2.25-.73 2.25-3.195 0-1.683.39-2.818.867-2.524.476.294.656 1.634.399 2.976-.373 1.95.007 2.531 1.884 2.888 2.326.442 2.327.448.1.583-1.827.11-2.262.745-2.32 3.386-.038 1.787-.492 4.15-1.008 5.25-.684 1.456-.842.587-.582-3.2zm-34.727 2.17c-3.334-3.334-1.05-9.702 3.443-9.602 5.54.123 5.856.357 6.53 4.846.36 2.408.371 4.664.023 5.012-1.493 1.493-8.425 1.315-9.996-.256zm7.683-1.564c.55-.878.7-2.79.333-4.25-.532-2.122-1.258-2.655-3.612-2.655-4.08 0-5.776 3.19-3.524 6.628 1.818 2.775 5.153 2.91 6.803.277zm9.251-14.558c.37-9.816.849-18.037 1.067-18.268.217-.231.369 7.52.336 17.225-.036 10.709-.455 17.89-1.066 18.268-.672.416-.784-5.323-.337-17.225zm7.524 13.903c.039-2.063.457-4.65.93-5.75.618-1.44.879-.387.93 3.75.039 3.213-.371 5.75-.93 5.75-.55 0-.968-1.688-.93-3.75zM73.64 21.55c.33-2.039.171-3.624-.364-3.624-1.452 0 .133-10.038 1.743-11.033.764-.472 1.623-.624 1.91-.338.286.286-.264.96-1.221 1.495-1.839 1.03-2.588 8.876-.847 8.876.51 0 .547 1.539.087 3.579-1.086 4.815-2.045 5.58-1.309 1.045zm4.484-2.624c0-1.375.227-1.938.504-1.25.278.687.278 1.812 0 2.5-.277.687-.504.125-.504-1.25zm2.91-.114c-.055-2.095.378-2.59 2.182-2.5 1.594.08 2.289.774 2.383 2.38.11 1.883.057 1.926-.32.25-.593-2.643-1.748-2.555-3.093.234-1.08 2.239-1.085 2.237-1.152-.364zm6.686.864c-.758-2.062.29-3.75 2.33-3.75 2.397 0 2.559 2.974.166 3.07-1.497.06-1.46.195.25.93 1.945.836 1.941.861-.143.93-1.179.038-2.35-.493-2.603-1.18zm7.246.25c1-.646 1.083-.975.25-.985-.688-.008-1.25-.69-1.25-1.515s.787-1.493 1.75-1.485c1.363.012 1.45.205.393.875-.946.6-1.021 1.067-.25 1.544 1.698 1.049 1.315 2.568-.643 2.55-1.496-.013-1.532-.156-.25-.984zm5.07-1.167c-.039-.917-.476-1.817-.972-2-.495-.183-.31-.876.41-1.539 1.707-1.568 2.556.344 1.424 3.206-.623 1.575-.806 1.646-.862.333z" fill-opacity=".932"/></symbol><symbol id="sprite-logo3" viewBox="0 0 446.854 272.988"><title>logo3</title><defs><clipPath id="b" clipPathUnits="userSpaceOnUse"><path d="M0 500h500V0H0z"/></clipPath><clipPath id="a" clipPathUnits="userSpaceOnUse"><path d="M0 500h500V0H0z"/></clipPath></defs><text style="-inkscape-font-specification:Montserrat-Bold" x="73.093" y="272.766" font-weight="700" font-size="22.251" font-family="Montserrat" fill="#e1a341" stroke-width="1.333"><tspan y="272.766" x="73.093201 92.78492 114.61269 135.01643 154.6859 178.13797 189.90849 211.58052 223.35104 246.80312 268.54187 287.49933 310.50638 332.33417 354.85168">FRESH &amp; NATURAL</tspan></text><text style="-inkscape-font-specification:Raleway-Bold" x="164.64" y="235.322" font-weight="700" font-size="16.618" font-family="Raleway" fill="#eae5da" stroke-width="1.333"><tspan y="235.322" x="164.64014 177.50267 184.93103 200.28632 214.36198 227.0251 233.68903 244.57399 257.03769 269.75067">SINCE 1989</tspan></text><g clip-path="url(#a)" transform="matrix(1.33333 0 0 -1.33333 -109.906 472.676)"><path d="M0 0l-88.005 88.005c-.942.943-2.557.535-2.919-.748-1.525-5.414-2.368-18.935 16.796-38.099 0 0 14.414-12.896 25.049-14.9 1.796-.339 3.441-1.219 4.649-2.59l31.129-35.335C-9.819-7.619-3.724-7.812 0-4.087A2.89 2.89 0 010 0" fill="#e1a341" transform="translate(275.901 262.535)"/><path d="M0 0l28.84 28.839a1.698 1.698 0 102.403-2.403L2.403-2.404A1.7 1.7 0 000 0m-5.83 5.83l28.84 28.839a1.698 1.698 0 102.403-2.403l-28.84-28.84A1.7 1.7 0 00-5.83 5.83m-5.83 5.83L17.18 40.5a1.698 1.698 0 102.403-2.404L-9.257 9.257a1.698 1.698 0 10-2.403 2.403m-39.993-62.783l39.899 43.098a5.634 5.634 0 008.117.156c2.2-2.2 5.767-2.2 7.966 0l32.852 32.851a5.987 5.987 0 010 8.467L24.192 46.437a5.986 5.986 0 01-8.466 0l-32.852-32.851a5.634 5.634 0 010-7.966 5.633 5.633 0 00-.156-8.117l-43.097-39.899a6.179 6.179 0 01-.227-8.953h.001a6.178 6.178 0 018.952.226" fill="#e1a341" transform="translate(276.802 306.317)"/></g><text style="-inkscape-font-specification:Garogier" x="-4.872" y="202.684" font-weight="400" font-size="70.099" font-family="Garogier" fill="#eae5da" stroke-width="1.333"><tspan y="202.684" x="-4.8722706 42.023647 85.835228 123.12765 167.99071 213.83514 262.41342 309.30936 355.15381 406.81641">RESTAURANT</tspan></text><g clip-path="url(#b)" transform="matrix(1.33333 0 0 -1.33333 -109.906 472.676)"><path d="M185.094 276.786c0-7.343 5.638-11.574 11.232-11.574 15.13 0 16.731 23.945 0 23.945-9.952 0-15.473-7.076-21.09-12.693-8.244-8.243-14.282-12.011-24.757-12.011-26.181 0-28.349 39.38 0 39.38 11.609 0 18.822-6.475 19.757-17.451" fill="none" stroke="#e1a341" stroke-width="2" stroke-linecap="round" stroke-linejoin="round"/><path d="M0 0a2.631 2.631 0 115.256.254A2.631 2.631 0 010 0" fill="#e1a341" transform="translate(167.584 286.384)"/><path d="M134.901 269.413s-13.218-11.054-20.7-3.573c-4.338 4.338-1.65 12.036 4.2 12.036 4.492 0 6.696-3.464 6.311-5.942" fill="none" stroke="#e1a341" stroke-width="2" stroke-linecap="round" stroke-linejoin="round"/><path d="M0 0a1.88 1.88 0 113.415-1.57A1.88 1.88 0 010 0" fill="#e1a341" transform="translate(123.007 272.822)"/><path d="M314.905 276.786c0-7.343-5.638-11.574-11.232-11.574-15.13 0-16.732 23.945 0 23.945 9.952 0 15.473-7.076 21.09-12.693 8.244-8.243 14.282-12.011 24.757-12.011 26.181 0 28.349 39.38 0 39.38-11.609 0-18.821-6.475-19.757-17.451" fill="none" stroke="#e1a341" stroke-width="2" stroke-linecap="round" stroke-linejoin="round"/><path d="M0 0a2.632 2.632 0 115.258-.254A2.632 2.632 0 010 0" fill="#e1a341" transform="translate(327.158 286.638)"/><path d="M365.098 269.413s13.218-11.054 20.699-3.573c4.338 4.338 1.651 12.036-4.199 12.036-4.492 0-6.696-3.464-6.312-5.942" fill="none" stroke="#e1a341" stroke-width="2" stroke-linecap="round" stroke-linejoin="round"/><path d="M0 0a1.88 1.88 0 113.416 1.57A1.88 1.88 0 010 0" fill="#e1a341" transform="translate(373.576 271.252)"/><path d="M208.215 252.63H86.001" fill="none" stroke="#e1a341" stroke-width="2" stroke-linecap="round" stroke-linejoin="round"/><path d="M0 0a3.76 3.76 0 010-7.52A3.76 3.76 0 010 0" fill="#e1a341" transform="translate(86.19 256.389)"/><path d="M177.96 178.015H86.002" fill="none" stroke="#e1a341" stroke-width="2" stroke-linecap="round" stroke-linejoin="round"/><path d="M0 0a3.76 3.76 0 010-7.52A3.76 3.76 0 010 0" fill="#e1a341" transform="translate(86.19 181.775)"/><path d="M291.784 252.63h122.214" fill="none" stroke="#e1a341" stroke-width="2" stroke-linecap="round" stroke-linejoin="round"/><path d="M0 0a3.76 3.76 0 11-.002 7.522A3.76 3.76 0 010 0" fill="#e1a341" transform="translate(413.81 248.869)"/><path d="M322.04 178.015h91.958" fill="none" stroke="#e1a341" stroke-width="2" stroke-linecap="round" stroke-linejoin="round"/><path d="M0 0a3.76 3.76 0 11-.002 7.522A3.76 3.76 0 010 0" fill="#e1a341" transform="translate(413.81 174.256)"/><path d="M191.965 303.833a7.702 7.702 0 01-7.702 7.702 7.702 7.702 0 117.702-7.702zM308.091 303.833a7.702 7.702 0 007.702 7.702 7.702 7.702 0 10-7.702-7.702zM159.304 284.142a8.476 8.476 0 01-8.476 8.476 8.476 8.476 0 118.476-8.476zM340.753 284.142a8.476 8.476 0 008.476 8.476 8.476 8.476 0 10-8.476-8.476z" fill="none" stroke="#e1a341" stroke-width="2" stroke-linecap="round" stroke-linejoin="round" stroke-miterlimit="10"/></g></symbol><symbol class="svg-inline--fa fa-twitter fa-w-16" id="sprite-twitter-brands" viewBox="0 0 512 512"><title>twitter-brands</title><path fill="currentColor" d="M459.37 151.716c.325 4.548.325 9.097.325 13.645 0 138.72-105.583 298.558-298.558 298.558-59.452 0-114.68-17.219-161.137-47.106 8.447.974 16.568 1.299 25.34 1.299 49.055 0 94.213-16.568 130.274-44.832-46.132-.975-84.792-31.188-98.112-72.772 6.498.974 12.995 1.624 19.818 1.624 9.421 0 18.843-1.3 27.614-3.573-48.081-9.747-84.143-51.98-84.143-102.985v-1.299c13.969 7.797 30.214 12.67 47.431 13.319-28.264-18.843-46.781-51.005-46.781-87.391 0-19.492 5.197-37.36 14.294-52.954 51.655 63.675 129.3 105.258 216.365 109.807-1.624-7.797-2.599-15.918-2.599-24.04 0-57.828 46.782-104.934 104.934-104.934 30.213 0 57.502 12.67 76.67 33.137 23.715-4.548 46.456-13.32 66.599-25.34-7.798 24.366-24.366 44.833-46.132 57.827 21.117-2.273 41.584-8.122 60.426-16.243-14.292 20.791-32.161 39.308-52.628 54.253z"/></symbol><symbol class="svg-inline--fa fa-youtube fa-w-18" id="sprite-youtube-brands" viewBox="0 0 576 512"><title>youtube-brands</title><path fill="currentColor" d="M549.655 124.083c-6.281-23.65-24.787-42.276-48.284-48.597C458.781 64 288 64 288 64S117.22 64 74.629 75.486c-23.497 6.322-42.003 24.947-48.284 48.597-11.412 42.867-11.412 132.305-11.412 132.305s0 89.438 11.412 132.305c6.281 23.65 24.787 41.5 48.284 47.821C117.22 448 288 448 288 448s170.78 0 213.371-11.486c23.497-6.321 42.003-24.171 48.284-47.821 11.412-42.867 11.412-132.305 11.412-132.305s0-89.438-11.412-132.305zm-317.51 213.508V175.185l142.739 81.205-142.739 81.201z"/></symbol></svg>